<svg width="161" height="151" viewBox="0 0 161 151" fill="none" xmlns="http://www.w3.org/2000/svg">
    <path d="M80.218 65.1873L72.4301 65.1477L72.4933 52.7148L64.6552 52.675L64.6902 45.779L56.8019 45.7389L56.8426 37.7356L48.8035 37.6947L48.8311 32.2585L40.7921 32.2176L40.8297 24.8183L32.7906 24.7775L32.8236 18.2842L24.6841 18.2428L24.7186 11.4475L17.1317 11.409L17.166 4.664L8.97619 4.6224L8.99946 0.0418586L0.75943 0L3.6226e-07 149.497L8.24003 149.539L8.25768 146.066L16.4977 146.107L16.5286 140.017L24.1155 140.055L24.5632 51.9176L32.552 51.9582L32.1503 131.035L40.2899 131.077L40.3116 126.798L48.3507 126.839L48.3624 124.524L56.4015 124.565L56.4212 120.689L64.2593 120.729L64.2869 115.292L72.125 115.332L72.1794 104.611L79.9673 104.65L80.1677 65.187L80.218 65.1873ZM48.6069 76.4028L56.2942 76.4419L56.2743 80.3681L64.1124 80.4079L64.0878 85.2401L56.2497 85.2003L56.2301 89.0761L48.5427 89.0371L48.6069 76.4028Z" fill="#00009F"/>
    <path d="M152.015 0.767706L151.992 5.34825L143.722 5.30624L143.686 12.3532L135.619 12.3122L135.586 18.8055L127.367 18.7638L127.333 25.3074L119.417 25.2672L119.379 32.6665L111.311 32.6256L111.284 38.0618L103.065 38.0201L103.024 46.0234L95.1076 45.9832L95.0728 52.8289L87.2067 52.7889L87.1433 65.2721L79.3781 65.2327L79.1776 104.696L86.9428 104.735L86.8889 115.356L94.755 115.396L94.7274 120.832L102.593 120.872L102.574 124.748L110.843 124.79L110.832 127.106L118.899 127.147L118.878 131.425L127.147 131.467L127.548 52.4401L135.465 52.4803L135.016 140.92L143.084 140.961L143.054 146.75L151.324 146.792L151.306 150.265L159.575 150.307L160.335 0.809971L152.015 0.767706ZM111.023 89.4042L103.157 89.3642L103.177 85.4884L95.3105 85.4484L95.3351 80.6162L103.201 80.6561L103.221 76.7299L111.087 76.7699L111.023 89.4042Z" fill="#00D9DA"/>
</svg>
