<svg width="128" height="252" viewBox="0 0 128 252" fill="none" xmlns="http://www.w3.org/2000/svg">
    <g clip-path="url(#clip0)">
        <path d="M56.641 131.968L64.5487 124.065L56.5844 116.219L64.6145 108.13L56.5882 100.162L48.5581 108.25L56.6464 116.341L48.7999 124.183L56.7027 132.029L48.8565 139.932L56.6978 147.778L64.6056 139.875L56.641 131.968Z" fill="#00D9DA"/>
        <path d="M63.3347 77.2518L55.2432 85.4016L47.5874 77.8005L33.1824 92.3711L40.653 99.7883L48.4382 92.0087L56.588 100.1L64.6794 91.9504L72.7058 99.9192L80.6135 92.0161L88.5781 99.9237L96.3015 92.0828L79.5146 77.2551L71.5458 85.2815L63.4577 77.2513L63.3964 77.3131L63.3347 77.2518Z" fill="#00D9DA"/>
        <path d="M63.1693 61.2045L63.256 61.1171L55.484 53.4029L55.3973 53.4903L63.1693 61.2045Z" fill="#00D9DA"/>
        <path d="M73.0971 226.374L80.7258 218.69L72.9985 211.019L65.3699 218.702L73.0971 226.374Z" fill="#00D9DA"/>
        <path d="M72.9486 116.16L65.0408 124.063L73.0052 131.909L65.0976 139.874L73.062 147.72L65.1542 155.623L72.6866 163.101L80.5942 155.137L72.6296 147.229L80.5371 139.264L72.5723 131.295L80.4799 123.331L72.5153 115.423L80.1164 107.767L72.5842 100.35L64.8605 108.13L72.9486 116.16Z" fill="#00D9DA"/>
        <path d="M56.9245 210.898L64.8321 202.933L56.8677 195.087L64.7755 187.184L56.8111 179.338L64.7189 171.435L56.7543 163.527L64.6621 155.624L56.7592 147.778L48.913 155.681L56.8158 163.527L48.9696 171.43L56.8724 179.276L49.0262 187.179L56.8673 194.964L49.021 202.867L56.9238 210.713L49.0776 218.616L57.1039 226.585L64.8889 218.744L56.9245 210.898Z" fill="#00D9DA"/>
        <path d="M62.9607 45.3173L63.0041 45.2737L55.148 37.4684L55.1047 37.512L62.9607 45.3173Z" fill="#00D9DA"/>
        <path d="M73.0882 210.645L80.8035 202.874L73.0762 195.202L65.3609 202.973L73.0882 210.645Z" fill="#00D9DA"/>
        <path d="M24.7922 100.24L32.3341 92.6438L24.5195 84.8852L16.9776 92.4815L24.7922 100.24Z" fill="#00D9DA"/>
        <path d="M110.945 92.5224L103.413 85.044L96.9789 92.265L104.141 99.3141L110.945 92.5224Z" fill="#00D9DA"/>
        <path d="M72.968 194.825L80.7266 187.01L73.043 179.382L65.2844 187.196L72.968 194.825Z" fill="#00D9DA"/>
        <path d="M63.155 29.2746L69.7 22.6824L62.9331 15.964L56.3881 22.5562L63.155 29.2746Z" fill="#00D9DA"/>
        <path d="M72.8043 178.961L80.6496 171.059L73.0533 163.518L65.208 171.419L72.8043 178.961Z" fill="#00D9DA"/>
        <path d="M63.3387 61.2565L63.2152 61.1339L63.1541 61.2571L63.2776 61.3798L55.4316 69.3441L63.3344 77.1904L63.3346 77.2519L63.3964 77.3132L63.4577 77.2514L63.3342 77.1288L71.242 69.2258L63.2774 61.3182L63.5228 61.1328L63.3387 61.2565Z" fill="#0095C7"/>
        <path d="M62.9738 45.3239L63.2208 45.5691L55.4973 53.41L63.2152 61.1338L63.3387 61.2564L63.5228 61.1327L71.1851 53.4151L63.2206 45.5076L63.2821 45.5074L63.0351 45.2622L62.9738 45.3239Z" fill="#0095C7"/>
        <path d="M55.1325 37.4775L63.0351 45.2622L63.2821 45.5074L71.3735 37.3576L63.2239 29.3276L55.1325 37.4775Z" fill="#0095C7"/>
        <path d="M65.0793 203.24L64.8321 202.933L56.9246 210.898L64.8889 218.744L65.1341 218.497L65.3811 218.742L73.0434 211.024L72.8582 210.84L73.1036 210.655L65.3243 202.931L65.0793 203.24Z" fill="#0095C7"/>
        <path d="M65.1341 218.497L64.8889 218.744L57.1039 226.585L56.9811 226.647L65.0072 234.554L65.1927 234.8L73.3454 226.588L73.0987 226.404L65.3811 218.742L65.1341 218.497Z" fill="#0095C7"/>
        <path d="M64.9658 171.68L64.7189 171.435L56.8111 179.338L64.7754 187.184L65.0206 186.937L65.2676 187.182L73.0525 179.341L72.7438 179.035L72.8051 178.973L65.211 171.433L64.9658 171.68Z" fill="#0095C7"/>
        <path d="M65.0207 186.937L64.7755 187.184L56.8677 195.087L64.8321 202.933L65.0793 203.24L65.3243 202.931L73.0481 195.213L72.8012 194.968L72.9851 194.783L65.2677 187.182L65.0207 186.937Z" fill="#0095C7"/>
        <path d="M64.909 155.87L64.6621 155.624L56.7543 163.527L64.7189 171.435L64.9658 171.68L65.211 171.433L73.0573 163.53L72.6868 163.163L72.6866 163.101L65.1542 155.623L64.909 155.87Z" fill="#0095C7"/>
        <path d="M64.5486 124.065L56.6409 131.968L64.6055 139.875L64.8504 139.567L65.0976 139.873L73.0052 131.909L65.0408 124.063L64.7958 124.371L64.5486 124.065Z" fill="#0095C7"/>
        <path d="M64.5487 124.065L64.7959 124.371L65.0408 124.063L72.9486 116.16L64.8606 108.13L64.738 108.253L64.6145 108.131L56.5843 116.219L64.5487 124.065Z" fill="#0095C7"/>
        <path d="M56.588 100.1L56.5882 100.162L64.6145 108.13L64.738 108.253L64.8606 108.13L72.5842 100.35L72.4605 100.166L72.7057 99.9192L64.6794 91.9503L56.588 100.1Z" fill="#0095C7"/>
        <path d="M64.909 155.87L65.1542 155.623L73.062 147.72L65.0976 139.874L64.8505 139.567L64.6055 139.875L56.6977 147.778L56.7592 147.778L64.6621 155.624L64.909 155.87Z" fill="#0095C7"/>
        <path d="M16.9379 108.671L25.0291 100.46L32.9937 108.367L40.7174 100.588L48.435 108.25L40.3433 116.338L48.2461 124.185L40.3999 132.088L48.3027 139.934L40.4565 147.837L48.3593 155.683L40.5131 163.586L48.4159 171.432L40.5696 179.335L48.4725 187.181L40.6262 195.084L48.5291 202.93L40.6828 210.833L48.5239 218.618L40.5551 226.644L65.2514 251.164L89.341 226.654L81.3764 218.746L89.1609 210.782L81.1963 202.874L89.1039 194.91L81.1393 187.002L89.0469 179.038L81.0823 171.13L88.9896 163.104L81.0248 155.135L88.9324 147.17L80.9678 139.263L88.8753 131.298L80.9108 123.391L88.8183 115.426L81.2237 107.763L88.7022 100.231L96.6668 108.138L104.329 100.421L111.923 107.961L127.125 92.5873L111.38 76.71L104.331 83.8102L86.7416 68.2472L79.2665 76.7024L71.7341 69.2239L79.6417 61.2593L71.7388 53.4131L79.5849 45.4488L71.4968 37.4186L85.8407 22.9712L85.779 22.9099L63.0583 0.351951L62.9348 0.229378L40.3769 22.95L40.6238 23.1952L55.0712 37.5392L47.0411 45.6272L54.9439 53.4734L47.0977 61.3763L55.0005 69.2225L48.0124 76.261L40.4183 68.7212L25.584 83.6625L17.002 75.142L0.451978 91.9966L16.9379 108.671ZM103.413 85.044L110.945 92.5224L104.202 99.3139L96.9789 92.265L103.413 85.044ZM62.9914 15.9785L69.7212 22.66L63.1622 29.2663L56.4325 22.5847L62.9914 15.9785ZM47.5873 77.8005L55.1814 85.3403L63.2729 77.1905L55.3701 69.3442L63.2163 61.4414L63.0311 61.2575L55.2517 53.5339L55.3743 53.4104L63.1593 45.5693L62.8506 45.2628L55.0095 37.4779L55.0708 37.4161L63.1622 29.2663L71.2503 37.2964L63.1588 45.4462L71.0617 53.2925L63.3993 61.0101L63.2154 61.1953L71.1183 69.0416L63.272 76.9444L63.3955 77.067L71.4835 85.0972L79.4524 77.0708L96.2395 91.96L88.5159 99.7394L80.5513 91.8319L72.705 99.7347L72.4598 99.9817L72.5833 100.104L80.1164 107.767L72.5153 115.423L80.4799 123.331L72.5723 131.295L80.5371 139.264L72.6296 147.229L80.5942 155.136L72.6866 163.101L73.0571 163.469L80.6514 171.07L72.8052 178.973L72.7439 179.035L73.0526 179.341L80.7084 186.942L72.9235 194.783L72.7396 194.969L72.9866 195.214L80.7657 202.876L73.042 210.655L72.7969 210.902L72.9821 211.086L80.761 218.687L73.0986 226.404L73.2839 226.588L65.1311 234.8L64.9459 234.616L56.9813 226.708L57.0426 226.647L49.0163 218.678L56.8625 210.775L48.9597 202.929L56.806 195.026L48.9031 187.18L56.7494 179.277L48.8465 171.43L56.6928 163.528L48.7899 155.681L56.6362 147.779L48.7334 139.932L56.5796 132.029L48.6768 124.183L56.523 116.28L48.4347 108.189L56.4649 100.101L48.3151 92.0092L40.5914 99.7886L33.1208 92.3714L47.5873 77.8005ZM24.4808 84.8354L32.3219 92.6203L24.7822 100.214L16.9411 92.4295L24.4808 84.8354Z" fill="#0000FF"/>
    </g>
    <defs>
        <clipPath id="clip0">
            <rect x="127.694" y="250.939" width="126.793" height="250.941" transform="rotate(179.794 127.694 250.939)" fill="white"/>
        </clipPath>
    </defs>
</svg>
