<svg width="139" height="137" viewBox="0 0 139 137" fill="none" xmlns="http://www.w3.org/2000/svg">
    <g clip-path="url(#clip0)">
        <path d="M8.70103 22.3164H0.301025V119.016H8.70103V22.3164Z" fill="#9229F6"/>
        <path d="M67.601 36.7164H59.201V72.1164H67.601V36.7164Z" fill="#9229F6"/>
        <path d="M33.001 98.0164H24.601V118.916H33.001V98.0164Z" fill="#9229F6"/>
        <path d="M40.701 98.0164H32.301V118.916H40.701V98.0164Z" fill="#9229F6"/>
        <path d="M48.801 98.0164H40.401V136.116H48.801V98.0164Z" fill="#9229F6"/>
        <path d="M54.901 98.0164H46.501V136.116H54.901V98.0164Z" fill="#9229F6"/>
        <path d="M63.001 109.616H54.601V133.016H63.001V109.616Z" fill="#9229F6"/>
        <path d="M70.801 103.616H62.401V127.016H70.801V103.616Z" fill="#9229F6"/>
        <path d="M109.601 91.8164H101.201V115.216H109.601V91.8164Z" fill="#9229F6"/>
        <path d="M117.901 85.0164H109.501V108.416H117.901V85.0164Z" fill="#9229F6"/>
        <path d="M125.001 79.0164H116.601V102.416H125.001V79.0164Z" fill="#9229F6"/>
        <path d="M101.301 95.3164H70.801V118.716H101.301V95.3164Z" fill="#9229F6"/>
        <path d="M99.601 36.7164H91.201V72.1164H99.601V36.7164Z" fill="#9229F6"/>
        <path d="M16.901 9.41641H8.50103V119.016H16.901V9.41641Z" fill="#9229F6"/>
        <path d="M25.001 0.816406H16.601V119.016H25.001V0.816406Z" fill="#9229F6"/>
        <path d="M130.201 0.816406H121.801V90.1164H130.201V0.816406Z" fill="#9229F6"/>
        <path d="M121.801 0.816406H24.801V12.6164H121.801V0.816406Z" fill="#9229F6"/>
        <path d="M138.101 0.816406H129.701V80.5164H138.101V0.816406Z" fill="#9229F6"/>
    </g>
    <defs>
        <clipPath id="clip0">
            <rect x="0.301025" y="0.816406" width="137.8" height="135.3" fill="white"/>
        </clipPath>
    </defs>
</svg>
