<svg width="3770" height="2157" viewBox="0 0 3770 2157" fill="none" xmlns="http://www.w3.org/2000/svg">
    <g clip-path="url(#clip0)">
        <path d="M157.4 282H156.4H130.4V308.1H105.2H104.3H78.2V334.2V335.1V361.2H104.3V387.3H130.4V413.3H156.4V439.4H183.4V413.3V412.4V387.3V386.3V361.2V360.3V335.1V334.2V309V308.1V282H157.4Z" fill="#000063"/>
        <path d="M522.4 256.001V229.901H496.3V203.801H470.2V177.801H444.2H443.2H418.1H417.2H391.1V203.801H365V230.801H391.1V256.901H417.2V283.001H443.2V309.001H469.3H470.2H495.4H496.3H522.4V283.001H548.4V256.001H522.4Z" fill="#000063"/>
        <path d="M418.1 881.7V855.6H392V829.6H365.9V803.5H339.9V777.4H313.8H312.9H287.7H286.8H260.7V803.5H234.6V830.5H260.7V856.6H286.8V882.6H312.9V908.7H338.9V934.8H365H365.9H392V908.7H417.2H418.1H444.2V881.7H418.1Z" fill="#000063"/>
        <path d="M418.1 334.2V308.1H392V282H365.9V256H338.9V282V283V308.1V309V334.2V335.1V360.3V361.2V386.3V387.3V412.4V413.3V438.5V439.4V464.6V465.5V490.6V491.6V516.7V517.6V542.8V543.7V568.8V569.8V594.9V595.8V621V621.9V647.1V648V673.1V674.1V699.2V700.1V725.3V726.2V752.3H365V778.3H391.1V804.4H417.2V830.5H444.2V804.4V803.5V778.3V777.4V752.3V751.3V726.2V725.3V700.1V699.2V674.1V673.1V648V647.1V621.9V621V595.8V594.9V569.8V568.8V543.7V542.8V517.6V516.7V491.5V490.6V465.5V464.5V439.4V438.5V413.3V412.4V387.3V386.3V361.2V360.3V334.2H418.1Z" fill="#0000FF"/>
        <path d="M470.2 881.701H444.1V855.601H418V829.501H392V803.401H365.9V777.301H339.8V751.201H313.7H312.8H287.7H286.8H260.7V777.301H235.6H234.7H208.6V803.401V804.301V830.401H234.7V856.501H260.8V882.601H286.9V908.701H313V934.801H339.1V960.901H365H365.9H392V934.801H417.1H418H444.1V908.701H470.2V881.701V881.701ZM417.2 907.801H391.1V933.901H366H365H339.9V907.801H313.8V881.701H287.7V855.601H261.6V829.501H235.5V804.401H261.6V778.301H286.7H287.6H312.7H313.6H338.7V804.401H365V830.501H391.1V856.601H417.2V882.701H443.3V907.801H418.2H417.2Z" fill="#0000FF"/>
        <path d="M444.2 334.201V308.101H418.1V282.001H392V256.001H365.9V229.901H339.8V203.801H312.8V229.901V230.801V256.001V256.901V282.001V282.901V308.001V308.901V334.001V334.901V360.001V360.901V386.001V386.901V412.001V412.901V438.001V438.901V464.001V464.901V490.001V490.901V516.001V516.901V542.001V542.901V568.001V568.901V594.001V594.901V621.001V621.901V647.001V647.901V673.001V673.901V699.001V699.901V725.001V725.901V752.001H338.9V778.101H365V804.201H391.1V830.301H417.2V856.401H443.3V882.501H470.3V856.401V855.501V830.401V829.501V804.401V803.501V778.401V777.501V752.401V751.501V726.401V725.501V700.401V699.501V674.401V673.501V648.001V647.101V622.001V621.001V595.901V595.001V569.901V569.001V543.901V543.001V517.901V517.001V491.901V491.001V465.901V465.001V439.901V439.001V413.901V413.001V387.901V387.001V361.901V361.001V334.901H444.2V334.201ZM443.2 361.201V386.301V387.201V412.301V413.201V438.301V439.201V464.301V465.201V490.301V491.201V516.301V517.201V542.301V543.201V568.301V569.201V594.301V595.201V621.001V621.901V647.001V647.901V673.001V673.901V699.001V699.901V725.001V725.901V751.001V751.901V777.001V777.901V803.001V803.901V829.001H418.1V802.901H392V776.801H365.9V750.701H339.8V725.601V724.701V699.601V698.701V673.601V672.701V648.001V647.101V622.001V621.001V595.901V595.001V569.901V569.001V543.901V543.001V517.901V517.001V491.901V491.001V465.901V465.001V439.901V439.001V413.901V413.001V387.901V387.001V361.901V361.001V335.901V335.001V309.001V308.101V283.001V282.001V256.901H365V283.001H391.1V309.001H417.2V335.101H443.3V360.201V361.201H443.2Z" fill="#F95F76"/>
        <path d="M548.4 229.9V203.8H522.4V177.8H496.3V152.6V151.7V126.5H521.4V152.6H547.5V178.7H574.5V151.7H548.4V125.6H522.4V99.5H496.3V73.5H469.3V99.5V100.5V125.6V126.5V151.7V152.6V178.7H495.4V204.8H521.4V230.8H547.5V256.9H574.5V229.9H548.4Z" fill="#F95F76"/>
        <path d="M548.4 177.8V151.7H522.4V125.6H495.4V151.7V152.6V178.7H521.4V204.8H547.5V230.8H574.5V204.8V203.8V177.8H548.4Z" fill="#0000FF"/>
        <path d="M574.5 256H548.4V229.9H522.3V203.8H496.2V177.7H470.1V151.6H444H443.1H418H417.1H391V177.7H365.9H365H338.9V203.8V204.7V230.8H365V256.9H391.1V283H417.2V309H443.3V335.1H469.4H470.3H495.4H496.3H522.4V309H548.5V283H574.6V256H574.5ZM495.4 308.1H470.3H469.4H444.3V282H418.2V256H392V229.9H365.9V204.8H392V178.7H417.1H418H443.1H444H469.1V204.8H495.2V230.9H521.3V257H547.4V282H521.3V308.1H496.2H495.4Z" fill="#0000FF"/>
        <path d="M79.1001 334.2V309H104.3H105.2H131.3V283H156.4H157.4H183.4V256H157.4H156.4H130.4V282H105.2H104.3H78.2001V308.1H53.1001H52.1001H26.1001V335.1H52.1001V361.2H78.2001V387.3H104.3V413.3H130.4V439.4H156.4V465.5H183.4V438.5H157.4V412.4H131.3V386.3H105.2V360.3H79.1001V335.1V334.2Z" fill="#0000FF"/>
        <path d="M444.2 47.4004H443.2H418.1H417.2H391.1V73.5004H365.9H365H338.9V99.5004H313.8H312.9H287.7H286.8H260.7V125.6H235.6H234.6H208.6V151.7H183.4H182.5H157.4H156.4H130.4V177.8H105.2H104.3H78.2V203.8H53.1H52.1H27H26.1H0V229.9V230.8V256V256.9V282V283V309H26.1H27H52.1H53.1H79.1V283H104.3H105.2H131.3V256.9H156.4H157.4H182.5V282V283V308.1V309V334.2V335.1V360.3V361.2V386.3V387.3V412.4V413.3V438.5V439.4V464.6V465.5V490.6V491.6V516.7V517.6V542.8V543.7V568.8V569.8V594.9V595.8V621V621.9V647.1V648V673.1V674.1V699.2V700.1V725.3V726.2V751.3V752.3V777.4V778.3V804.4H209.5V778.3H234.6H235.6H261.6V752.3H286.8H287.7H313.8V726.2V725.3V700.1V699.2V674.1V673.1V648V647.1V621.9V621V595.8V594.9V569.8V568.8V543.7V542.8V517.6V516.7V491.6V490.6V465.5V464.6V439.4V438.5V413.3V412.4V387.3V386.3V361.2V360.3V335.1V334.2V309V308.1V283V282V256.9V256V230.8V229.9V204.8H339.9V178.7H365H365.9H392V152.6H417.2H418.1H443.2H444.2H470.2V126.5V125.6V100.5V99.5004V74.4004V73.5004V47.4004H444.2Z" fill="white"/>
        <path d="M598.8 1077.9H597.8H572.7H571.8H546.6H545.7H520.5H519.6H493.5V1104V1104.9V1130.1V1131V1156.1V1157.1V1182.2V1183.1V1208.3V1209.2V1234.3V1235.3V1260.4V1261.3V1286.5V1287.4V1312.6H467.5V1338.6V1339.6V1364.7V1365.6V1390.8V1391.7V1416.9V1417.8V1442.9H442.3V1417.8V1416.9V1390.8H416.3V1364.7H390.2V1339.6V1338.6V1312.6H364.1V1286.5H337.1V1312.6H311V1338.6V1339.6V1364.7H285V1390.8V1391.7V1416.9H258.9V1442.9V1443.9V1469H232.8V1495.1V1496V1521.1H207.7V1496V1495.1V1469.9V1469V1442.9H181.6V1417.8V1416.9V1391.7V1390.8V1365.6V1364.7V1339.6V1338.6V1313.5V1312.6V1287.4V1286.5V1261.3V1260.4V1235.3V1234.3V1208.3H155.5H154.6H128.5V1234.3H103.4H102.5H76.4001V1260.4H50.3V1286.5V1287.4V1312.6V1313.5V1338.6V1339.6V1364.7V1365.6V1390.8V1391.7V1416.9V1417.8V1442.9V1443.9V1469.9H76.4001V1495.1V1496V1521.1V1522.1V1547.2V1548.1V1573.3V1574.2V1599.4V1600.3V1625.4V1626.4V1651.5V1652.4V1678.5H102.5V1703.7V1704.6V1729.7V1730.7V1755.8V1756.7V1781.9V1782.8V1807.9V1808.9V1834V1834.9V1860.1V1861V1887.1H128.5H129.5H154.6H155.5H181.6V1861H207.7V1834.9V1834V1808.9H233.8V1782.8V1781.9V1756.7H259.8V1730.7V1729.7V1704.6H285.9V1678.5V1677.6V1652.4H312V1626.4V1625.4V1600.3H338V1574.2V1573.3V1548.1H363.2V1574.2H389.3V1600.3H415.3V1626.4H441.4V1652.4H467.5V1678.5H493.5V1704.6H519.6H520.5H545.7H546.6H572.7V1678.5V1677.6V1652.4V1651.5V1626.4V1625.4V1600.3V1599.4V1574.2V1573.3V1548.1H598.8V1522.1V1521.1V1496V1495.1V1469.9V1469V1443.9V1442.9V1417.8V1416.9V1391.7V1390.8V1365.6V1364.7V1339.6V1338.6V1313.5H624.8V1287.4V1286.5V1261.3V1260.4V1235.3V1234.3V1209.2V1208.3V1183.1V1182.2V1157.1V1156.1V1131V1130.1V1104.9V1104V1077.9H598.8Z" fill="white"/>
        <path d="M259.8 1338.6V1312.6H233.8V1286.5H206.8V1312.6V1313.5V1338.6V1339.6V1364.7V1365.6V1390.8V1391.7V1416.9V1417.8V1443.9H232.8V1469.9H259.8V1443.9V1442.9V1417.8H285.9V1391.7V1390.8V1365.6V1364.7V1338.6H259.8Z" fill="#0000FF"/>
        <path d="M468.4 1390.8H441.4V1417.8H468.4V1390.8Z" fill="#0000FF"/>
        <path d="M442.3 1677.6V1651.5H416.3V1625.4H390.2V1599.4H364.1H363.2H337.1V1625.4V1626.4V1651.5H311V1677.6V1678.5V1703.7H285V1729.7V1730.7V1755.8H258.9V1781.9V1782.8V1807.9H232.8V1834V1834.9V1860.1H206.8V1886.2H180.7V1912.2V1913.2V1939.2H206.8V1965.3H232.8V1991.4H258.9H259.8H285H285.9H312V1965.3V1964.4V1939.2H338V1913.2V1912.2V1887.1H364.1V1861H390.2V1834.9V1834V1808.9H416.3V1782.8V1781.9V1756.7H442.3V1730.7V1729.7V1704.6H468.4V1677.6H442.3Z" fill="#000063"/>
        <path d="M494.5 1677.6H468.4V1651.5H442.3V1625.4H416.2V1599.3H390.1V1573.2H364V1547.1H337V1573.2V1574.1V1599.2H311V1625.3V1626.2V1651.3H285V1677.4V1678.3V1703.4H258.9V1729.5V1730.4V1755.5H232.8V1781.6V1782.5V1807.6H206.7V1833.7V1834.6V1859.7H180.6V1885.8H155.5H154.6H128.5V1912.8H154.6V1938.9H180.7V1965H206.8V1991.1H232.9V2017.2H259H259.9H285H285.9H312V1991.1H338V1965V1964.1V1939H364.1V1912.9V1912V1886.9H390.2V1861H416.3V1834.9V1834V1808.8H442.4V1782.7V1781.8V1756.7H468.5V1730.6V1729.7V1704.5H494.6V1677.6H494.5ZM441.4 1730.7V1755.8H415.3V1781.9V1782.8V1807.9H389.2V1834V1834.9V1860H363.1V1886.1H337V1912.2V1913.1V1938.2H311V1964.3V1965.2V1990.3H285.9H285H259.9H259H233.9V1964.2H207.8V1938.1H181.7V1913V1912.1V1887H207.8V1861H233.9V1834.9V1834V1808.8H260V1782.7V1781.8V1756.7H286.1V1730.6V1729.7V1704.5H312V1678.4V1677.5V1652.4H338V1626.3V1625.4V1600.3H363.1H364H389.1V1626.4H415.2V1652.5H441.3V1678.6H467.4V1703.7H441.3V1729.8V1730.7H441.4Z" fill="#0000FF"/>
        <path d="M624.8 1781.9V1755.8H598.8V1729.7H572.7H571.8H545.7V1756.7H571.8V1782.8H597.8V1808.9H623.9H624.8H650.9V1781.9H624.8Z" fill="#000063"/>
        <path d="M677 1781.9H650.9V1755.8H624.8V1729.7H598.7V1703.6H572.6H571.7H546.6H545.7H520.6H519.7H493.6V1730.6H519.7V1756.7H545.8V1782.8H571.9V1808.9H598V1835H624.1H625H651.1V1808.9H677V1781.9ZM623.9 1807.9H598.8V1781.8H572.7V1755.7H546.6V1730.6H571.7H572.6H597.7V1756.7H623.8V1782.8H650V1807.9H624.9H623.9Z" fill="#0000FF"/>
        <path d="M703.1 1156.1H702.1H677V1130.1H650V1156.1V1157.1V1182.2V1183.1V1208.3V1209.2V1234.3V1235.3V1260.4V1261.3V1286.5V1287.4V1312.6H623.9V1338.6V1339.6V1364.7V1365.6V1390.8V1391.7V1416.9V1417.8V1442.9V1443.9V1469V1469.9V1495.1V1496V1521.1V1522.1V1547.2H597.8V1573.3V1574.2V1599.4V1600.3V1625.4V1626.4V1651.5V1652.4V1677.6V1678.5V1704.6H623.9V1730.7H650V1756.7H676.1H677H703.1V1730.7V1729.7V1704.6V1703.7V1678.5V1677.6V1652.4V1651.5V1626.4V1625.4V1600.3V1599.4V1574.2V1573.3V1548.1V1547.2V1522.1V1521.1V1496V1495.1V1469.9V1469V1443.9V1442.9V1417.8V1416.9V1391.7H729.1V1365.6V1364.7V1339.6V1338.6V1313.5V1312.6V1287.4V1286.5V1261.3V1260.4V1235.3V1234.3V1209.2V1208.3V1183.1V1182.2V1156.1H703.1Z" fill="#0000FF"/>
        <path d="M703.1 1156.1V1130.1H677V1104H650.9V1077.9H623.9V1104V1104.9V1130.1V1131V1156.1V1157.1V1182.2V1183.1V1208.3V1209.2V1234.3V1235.3V1260.4V1261.3V1286.5V1287.4V1312.6H597.8V1338.6V1339.6V1364.7V1365.6V1390.8V1391.7V1416.9V1417.8V1442.9V1443.9V1469V1469.9V1495.1V1496V1521.1V1522.1V1547.2H571.8V1573.3V1574.2V1599.4V1600.3V1625.4V1626.4V1651.5V1652.4V1677.6V1678.5V1704.6H597.8V1730.7H623.9V1756.7H650V1782.8H677V1755.8H650.9V1729.7H624.8V1703.7H598.8V1678.5V1677.6V1652.4V1651.5V1626.4V1625.4V1600.3V1599.4V1574.2V1573.3V1548.1H624.8V1522.1V1521.1V1496V1495.1V1469.9V1469V1443.9V1442.9V1417.8V1416.9V1391.7V1390.8V1365.6V1364.7V1339.6V1338.6V1313.5H650.9V1287.4V1286.5V1261.3V1260.4V1235.3V1234.3V1209.2V1208.3V1183.1V1182.2V1157.1V1156.1V1131H676.1V1157.1H702.1V1183.1H729.1V1156.1H703.1Z" fill="#F95F76"/>
        <path d="M442.3 1364.7V1338.6H416.3V1312.6H389.3V1338.6V1339.6V1365.6H415.3V1391.7H441.4H442.3H468.4V1364.7H442.3Z" fill="#F95F76"/>
        <path d="M468.4 1416.9H441.4V1443.9H468.4V1416.9Z" fill="#F95F76"/>
        <path d="M285.9 1338.6V1312.6H259.8V1286.5H233.8V1260.4H207.7V1234.3H180.7V1260.4V1261.3V1286.5V1287.4V1312.6V1313.5V1338.6V1339.6V1364.7V1365.6V1390.8V1391.7V1416.9V1417.8V1443.9H206.8V1469V1469.9V1495.1V1496V1522.1H233.8V1496V1495.1V1469.9V1469V1442.9H207.7V1417.8V1416.9V1391.7V1390.8V1365.6V1364.7V1339.6V1338.6V1313.5V1312.6V1287.4H232.8V1313.5H258.9V1339.6H285V1365.6H312V1338.6H285.9Z" fill="#F95F76"/>
        <path d="M1176.1 1861.9V1835.8H1150V1809.7H1123.9V1783.6H1097.8H1096.9H1070.8V1809.7H1044.8V1835.8H1019.6H1018.7H992.6V1861.9H967.5H966.6H940.5V1887.9H915.3H914.4H889.3H888.3H862.3V1914H837.1H836.2H810.1V1941H836.2V1967.1H862.3V1993.2H888.3V2019.2H914.4H915.3H940.5H941.4H966.6H967.5H993.6V1993.2H1018.7H1019.6H1044.8H1045.7H1071.8V1967.1H1096.9H1097.8H1123.9V1941H1149.1H1150H1176.1V1914.9H1202.1V1888.9V1887.9V1861.9H1176.1Z" fill="#000063"/>
        <path d="M1202.1 1861.9V1835.8H1176V1809.7H1150V1783.6H1123.9V1757.5H1097.8H1096.9H1070.8V1783.6H1044.7V1809.7H1019.6H1018.7H992.6V1835.8H967.5H966.6H940.5V1861.9H915.4H914.5H889.4H888.5H862.4V1888H837.3H836.4H811H810.1H785H784H758V1915H784V1941.1H810.1V1967.2H836.2V1993.3H862.3V2019.4H888.4V2045.5H914.5H915.4H940.5H941.4H966.5H967.4H993.5V2019.4H1018.6H1019.5H1044.6H1045.5H1071.6V1993.3H1096.7H1097.6H1123.7V1967.2H1148.8H1149.7H1175.8V1941H1201.9V1914.9H1228V1888.8V1887.9V1861.8H1202.1V1861.9ZM1201.2 1888.9V1914H1175.1V1940.1H1150H1149.1H1123V1966.2H1097.9H1097H1070.9V1992.3H1045.8H1044.9H1019.8H1018.9H992.8V2018.4H967.7H966.8H941.7H940.8H915.7H914.8H889.7V1992.3H863.6V1966.2H837.5V1940.1H811V1915H836.1H837H863.1V1888.9H888.2H889.1H914.2H915.1H941.2V1862.8H966.3H967.2H993.3V1836.7H1018.4H1019.3H1045.4V1810.6H1071.5V1784.5H1096.6H1097.5H1122.6V1810.6H1148.7V1836.7H1174.8V1862.8H1200.9V1887.9V1888.9H1201.2Z" fill="#0000FF"/>
        <path d="M967.5 1314.4H966.6H941.4H940.5H915.3H914.4H888.3V1340.4V1341.4V1366.5V1367.4V1393.5H914.4V1419.6H940.5V1445.6H966.6V1471.7H993.6V1445.6V1444.7V1419.6V1418.6V1393.5V1392.6V1367.4V1366.5V1341.4V1340.4V1314.4H967.5Z" fill="#000063"/>
        <path d="M967.5 1470.8V1444.7H941.4V1418.6H915.3V1392.6H889.3V1367.4V1366.5V1341.4V1340.4V1315.3H914.4H915.3H940.5H941.4H967.5V1288.3H941.4H940.5H915.3H914.4H888.3V1314.4H862.3V1340.4V1341.4V1366.5V1367.4V1393.5H888.3V1419.6H914.4V1445.6H940.5V1471.7H966.6V1497.8H993.6V1470.8H967.5Z" fill="#0000FF"/>
        <path d="M967.5 1522.9V1496.9H941.4V1470.8H915.3V1444.7H889.3V1418.6H862.3V1444.7V1445.6V1470.8V1471.7V1496.9V1497.8V1522.9V1523.9V1549V1549.9V1575.1V1576V1601.1V1602.1V1627.2V1628.1V1653.3V1654.2V1679.4V1680.3V1705.4V1706.4V1731.5V1732.4V1758.5H888.3H889.3H914.4H915.3H941.4V1732.4H967.5V1706.4V1705.4V1680.3H993.6V1654.2V1653.3V1628.1V1627.2V1602.1V1601.1V1576V1575.1V1549.9V1549V1522.9H967.5Z" fill="#0000FF"/>
        <path d="M1202.1 1366.5V1340.4H1176.1V1314.4H1149.1V1340.4V1341.4V1366.5V1367.4V1392.6V1393.5V1418.6V1419.6V1444.7V1445.6V1470.8V1471.7V1496.9V1497.8V1522.9V1523.9V1549V1549.9V1575.1V1576V1601.1V1602.1V1627.2V1628.1V1653.3V1654.2V1679.4H1123V1705.4V1706.4V1731.5V1732.4V1758.5H1149.1V1784.6H1175.1V1810.6H1201.2V1836.7H1228.2V1810.6V1809.7V1784.6V1783.6V1758.5V1757.6V1732.4V1731.5V1706.4V1705.4V1680.3V1679.4V1654.2V1653.3V1628.1V1627.2V1602.1V1601.1V1576V1575.1V1549.9V1549V1523.9V1522.9V1497.8V1496.9V1471.7V1470.8V1445.6V1444.7V1419.6V1418.6V1393.5V1392.6V1366.5H1202.1Z" fill="#0000FF"/>
        <path d="M1228.2 1366.5V1340.4H1202.1V1314.3H1176V1289.1V1288.2V1262.1H1150V1236H1123.9V1209.9H1096.9V1236.9H1123V1262V1262.9V1288V1288.9V1314.1V1315V1340.1V1341V1366.1V1367V1392.1V1393V1418.2V1419.1V1444.2V1445.1V1470.2V1471.1V1496.2V1497.1V1522.2V1523.1V1548.2V1549.1V1574.2V1575.1V1600.3V1601.2V1626.3V1627.2V1652.3V1653.2V1678.3H1096.9V1704.4V1705.3V1730.4V1731.3V1757.4H1123V1783.5H1149.1V1809.6H1175.2V1835.7H1201.3V1861.8H1227.4V1887.9H1254.4V1861.8V1860.9V1835.8V1834.9V1809.8V1808.9V1783.8V1782.9V1757.8V1756.9V1731.8V1730.9V1705.8V1704.9V1679.8V1678.9V1653.8V1652.9V1627.8V1626.9V1601.8V1600.9V1576V1575.1V1550V1549.1V1524V1523.1V1498V1497.1V1472V1471.1V1446V1445.1V1420V1419.1V1393.9V1393V1366.9H1228.2V1366.5ZM1227.3 1393.5V1418.7V1419.6V1444.7V1445.6V1470.7V1471.6V1496.7V1497.6V1522.7V1523.6V1548.7V1549.6V1574.7V1575.6V1600.8V1601.7V1626.8V1627.7V1652.8V1653.7V1678.8V1679.7V1704.8V1705.7V1730.8V1731.7V1756.8V1757.7V1782.8V1783.7V1808.8V1809.7V1834.8H1202.2V1808.7H1176.1V1782.6H1150V1756.5H1123.9V1731.4V1730.5V1705.4V1704.5V1679.4H1150V1653.3V1652.4V1627.3V1626.4V1601.3V1600.4V1576V1575.1V1550V1549.1V1524V1523.1V1498V1497.1V1472V1471.1V1446V1445.1V1420V1419.1V1393.9V1393V1367.9V1367V1341.9V1341V1315.9H1175.1V1342H1201.2V1368.1H1227.3V1393.2V1393.5V1393.5Z" fill="#F95F76"/>
        <path d="M967.5 1496.9V1470.8H941.4V1444.7H915.3V1418.6H889.3V1392.6H863.2V1366.5H836.2V1392.6V1393.5V1418.6V1419.6V1444.7V1445.6V1470.8V1471.7V1496.9V1497.8V1522.9V1523.9V1549V1549.9V1575.1V1576V1601.1V1602.1V1627.2V1628.1V1653.3V1654.2V1679.4V1680.3V1705.4V1706.4V1732.4H863.2V1706.4V1705.4V1680.3V1679.4V1654.2V1653.3V1628.1V1627.2V1602.1V1601.1V1576V1575.1V1549.9V1549V1523.9V1522.9V1497.8V1496.9V1471.7V1470.8V1445.6V1444.7V1419.6H888.3V1445.6H914.4V1471.7H940.5V1497.8H966.6V1523.9H993.6V1496.9H967.5Z" fill="#F95F76"/>
        <path d="M1097.8 1236.1V1211V1210.1V1184H1071.7V1157.9H1045.6H1044.7H1019.6H1018.7H993.6H992.7H966.6V1184H941.5H940.6H915.5H914.6H888.5V1210.1H863.4H862.5H836.4V1236.2H811H810.1H784V1262.3H758V1288.4H731.9V1314.5V1315.4V1340.5H705.8V1366.6V1367.5V1392.6V1393.5V1418.7V1419.6V1444.7V1445.6V1470.7V1471.6V1496.7V1497.6V1522.7V1523.6V1548.7V1549.6V1574.7V1575.6V1600.8V1601.7V1626.8V1627.7V1652.8V1653.7V1678.8V1679.7V1704.8V1705.7V1730.8V1731.7V1756.8V1757.7V1782.8V1783.7V1809.8H731.9V1834.9V1835.8V1861.9H758V1888H784H784.9H810H810.9H836H836.9H863V1861.9H888.1H889H914.1H915H941.1V1835.8H966.2H967.1H993.2V1809.7H1018.3H1019.2H1045.3V1783.6H1071.4V1757.5H1097.5V1731.4V1730.5V1705.4V1704.5V1679.4H1123.6V1653.3V1652.4V1627.3V1626.4V1601.3V1600.4V1576V1575.1V1550V1549.1V1524V1523.1V1498V1497.1V1472V1471.1V1446V1445.1V1420V1419.1V1393.9V1393V1367.9V1367V1341.9V1341V1315.9V1315V1289.8V1288.9V1263.8V1262.9V1236.8H1097.8V1236.1ZM992.6 1340.4V1341.3V1366.4V1367.3V1392.4V1393.3V1418.5V1419.4V1444.5V1445.4V1470.5V1471.4V1496.5V1497.4V1522.5V1523.4V1548.5V1549.4V1574.5V1575.4V1600.6V1601.5V1626.6V1627.5V1652.6V1653.5V1678.6H966.5V1704.7V1705.6V1730.7H940.4V1756.8H915.3H914.4H889.3H888.4H863.3V1730.7H837.2V1705.6V1704.7V1679.6V1678.7V1653.6V1652.7V1627.6V1626.7V1601.6V1600.7V1576V1575.1V1550V1549.1V1524V1523.1V1498V1497.1V1472V1471.1V1446V1445.1V1420V1419.1V1393.9V1393V1367.9H863.3V1341.8V1340.9V1315.8H889.4V1289.7H914.5H915.4H940.5H941.4H966.5V1315.8H992.6V1340.4Z" fill="white"/>
        <path d="M1437.1 1471.9V1445.8H1411V1419.7H1384V1445.8V1446.7V1471.9V1472.8V1497.9V1498.9V1524V1524.9V1551H1411V1524.9H1436.1H1437.1H1463.1V1498.9V1497.9V1471.9H1437.1Z" fill="#0000FF"/>
        <path d="M1437.1 1784.7V1758.6H1411V1732.6H1384V1758.6V1759.6V1784.7V1785.6V1810.8V1811.7V1836.9V1837.8V1862.9V1863.9V1889V1889.9V1916H1410.1V1942.1H1436.1V1968.1H1463.1V1942.1V1941.1V1916V1915.1V1889.9V1889V1863.9V1862.9V1837.8V1836.9V1811.7V1810.8V1784.7H1437.1Z" fill="#0000FF"/>
        <path d="M1437.1 1993.3H1436.1H1411V1967.2H1384.9V1941.1H1358.9H1357.9H1332.8H1331.9H1305.8V1967.2V1968.1V1994.2H1331.9V2020.3H1357.9V2046.4H1384V2072.4H1410.1H1411H1437.1V2046.4H1463.1V2020.3V2019.4V1993.3H1437.1Z" fill="#000063"/>
        <path d="M1463.1 1471.9V1445.8H1437.1V1419.7H1411V1393.6H1384.9V1367.6H1357.9V1393.6V1394.6V1419.7V1420.6V1445.8V1446.7V1471.9V1472.8V1497.9V1498.9V1524V1524.9V1551H1384.9V1524.9V1524V1498.9V1497.9V1472.8V1471.9V1446.7V1445.8V1420.6H1410.1V1446.7H1436.1V1472.8H1462.2V1498.9H1489.2V1471.9H1463.1Z" fill="#F95F76"/>
        <path d="M1411 1680.4V1655.3H1436.1H1437.1H1462.2H1463.1H1489.2V1628.3H1463.1H1462.2H1437.1H1436.1H1410.1V1654.4H1384V1680.4V1681.4V1707.4H1410.1V1733.5H1436.1V1759.6H1462.2V1785.6H1489.2V1758.6H1463.1V1732.6H1437.1V1706.5H1411V1681.4V1680.4Z" fill="#0000FF"/>
        <path d="M1463.1 1784.7V1758.6H1437V1732.5H1411V1706.4H1384.9V1680.3H1357.9V1706.4V1707.3V1732.4V1733.3V1758.4V1759.3V1784.5V1785.4V1810.5V1811.4V1836.5V1837.4V1862.5V1863.4V1888.6V1889.5V1915.6H1384V1941.7H1410.1V1967.8H1436.2V1993.9H1462.3V2020H1489.3V1993.9V1993V1967.9V1967V1941.9V1941V1916V1915.1V1890V1889.1V1863.9V1863V1837.9V1837V1811.9V1811V1784.9H1463.1V1784.7ZM1462.2 1811.7V1836.8V1837.7V1862.8V1863.7V1888.9V1889.8V1914.9V1915.8V1940.9V1941.8V1966.9H1437V1940.8H1411V1914.7H1384.9V1889.6V1888.7V1863.5V1862.6V1837.5V1836.6V1811.5V1810.6V1785.5V1784.6V1759.4V1758.5V1733.4H1410V1759.5H1436.1V1785.6H1462.2V1810.7V1811.7V1811.7Z" fill="#F95F76"/>
        <path d="M1489.2 2019.4H1463.1V1993.3H1437V1967.2H1411V1941.1H1384.9V1915H1358.8H1357.9H1332.8H1331.9H1305.8V1941.1H1280.7H1279.8H1253.7V1968.1H1279.8V1994.2H1305.9V2020.3H1332V2046.4H1358.1V2072.5H1384.2V2098.6H1410.3H1411.2H1437.3V2072.5H1463.4V2046.4H1489.5V2019.4H1489.2ZM1410.1 2071.5H1385V2045.4H1358.9V2019.3H1332.8V1993.2H1306.7V1968.1V1967.2V1942.1H1331.9H1332.8H1357.9H1358.8H1383.9V1968.2H1410V1994.3H1436.1V2020.4H1462.2V2045.5H1436.1V2071.6H1411H1410.1V2071.5Z" fill="#0000FF"/>
        <path d="M1489.2 1393.6V1367.6H1463.1V1341.5H1436.1V1367.6H1410.1V1394.6H1436.1V1420.6H1462.2V1446.7H1489.2V1420.6H1515.3V1393.6H1489.2Z" fill="#000063"/>
        <path d="M1515.3 1394.6V1367.6H1489.2V1341.5H1463.1V1315.4H1436.1V1341.5H1411H1410.1H1384V1367.6V1368.5V1394.6H1410.1V1420.6H1436.1V1446.7H1462.2V1472.8H1489.2V1446.7H1515.3V1419.7H1488.3V1445.8H1463.1V1419.7H1437.1V1393.6H1411V1368.5H1437.1V1342.4H1462.2V1368.5H1488.3V1394.6H1515.3Z" fill="#0000FF"/>
        <path d="M1489.2 1654.4H1488.3H1463.1H1462.2H1437.1H1436.1H1410.1V1680.4V1681.4V1707.4H1436.1V1733.5H1462.2V1759.6H1488.3V1785.6H1515.3V1759.6V1758.6V1733.5V1732.6V1707.4V1706.5V1681.4V1680.4V1654.4H1489.2Z" fill="#000063"/>
        <path d="M1723.9 1393.6V1367.6H1697.8V1341.5H1670.8V1367.6V1368.5V1393.6V1394.6V1419.7V1420.6V1445.8V1446.7V1472.8H1696.9V1498.9H1722.9V1524.9H1749.9V1498.9V1497.9V1472.8V1471.9V1446.7V1445.8V1420.6V1419.7V1393.6H1723.9Z" fill="#0000FF"/>
        <path d="M1723.9 1576.1V1550.1H1697.8V1524H1671.7V1497.9H1645.6H1644.7H1618.6V1524V1524.9V1551H1644.7V1577.1H1670.8V1603.1H1696.9V1629.2H1723.9V1603.1H1749.9V1576.1H1723.9Z" fill="#000063"/>
        <path d="M1749.9 1577.1V1550.1H1723.9V1524H1697.8V1497.9H1671.7V1471.9H1645.6V1445.8H1618.6V1471.9V1472.8V1497.9H1592.6V1524H1566.5V1551H1592.6H1593.5H1618.6V1577.1H1644.7V1603.1H1670.8V1629.2H1696.9V1655.3H1722.9V1681.4H1749.9V1654.4H1723.9V1628.3H1697.8V1602.2H1671.7V1576.1H1645.6V1550.1H1619.6V1524.9V1524V1498.9H1644.7H1645.6H1670.8V1524.9H1696.9V1551H1722.9V1577.1H1749.9Z" fill="#0000FF"/>
        <path d="M1723.9 1706.5V1680.4H1697.8V1654.4H1670.8V1680.4V1681.4V1706.5V1707.4V1732.6V1733.5V1758.6V1759.6V1785.6H1696.9V1811.7H1722.9V1837.8H1749.9V1811.7V1810.8V1785.6V1784.7V1759.6V1758.6V1733.5V1732.6V1706.5H1723.9Z" fill="#0000FF"/>
        <path d="M1697.8 1862.9V1836.9H1671.7V1810.8H1645.6H1644.7H1618.6V1836.9H1593.5H1592.6H1566.5V1863.9H1592.6V1889.9H1618.6V1916H1644.7V1942.1H1670.8H1671.7H1697.8V1916H1723.9V1889.9V1889V1862.9H1697.8Z" fill="#000063"/>
        <path d="M1749.9 1707.4V1680.4H1723.9V1654.4H1697.8V1628.3H1671.7V1602.2H1644.7V1628.3V1629.2V1654.4V1655.3V1680.4V1681.4V1706.5V1707.4V1732.6V1733.5V1758.6V1759.6V1785.6H1670.8V1811.7H1696.9V1837.8H1722.9V1863.9H1749.9V1836.9H1723.9V1810.8H1697.8V1784.7H1671.7V1759.6V1758.6V1733.5V1732.6V1707.4V1706.5V1681.4V1680.4V1655.3H1696.9V1681.4H1722.9V1707.4H1749.9Z" fill="#F95F76"/>
        <path d="M1723.9 1862.9V1836.8H1697.8V1810.7H1671.7V1784.6H1645.6H1644.7H1618.6V1810.7H1593.5H1592.6H1566.5V1836.8H1540.4V1863.8H1566.5V1889.9H1592.6V1916H1618.7V1942.1H1644.8V1968.2H1670.9H1671.8H1697.9V1942.1H1724V1916H1750.1V1889.9V1889V1862.9H1723.9ZM1722.9 1889.9V1915H1696.8V1941.1H1671.6H1670.7H1645.6V1915H1619.5V1889H1593.4V1862.9H1567.3V1837.8H1592.5H1593.4H1619.5V1811.7H1644.6H1645.5H1670.6V1837.8H1696.7V1863.9H1722.8V1889.1V1889.9H1722.9Z" fill="#0000FF"/>
        <path d="M1749.9 1394.6V1367.6H1723.9V1341.5H1697.8V1315.4H1671.7V1289.3H1645.6V1263.3H1618.6V1290.3H1644.7V1315.4V1316.3V1341.5V1342.4V1367.6V1368.5V1393.6V1394.6V1419.7V1420.6V1445.8V1446.7V1472.8H1670.8V1498.9H1696.9V1524.9H1722.9V1551H1749.9V1524H1723.9V1497.9H1697.8V1471.9H1671.7V1446.7V1445.8V1420.6V1419.7V1394.6V1393.6V1368.5V1367.6V1342.4H1696.9V1368.5H1722.9V1394.6H1749.9Z" fill="#F95F76"/>
        <path d="M1619.6 1289.3V1264.2V1263.3V1237.2H1593.5V1211.1H1567.4H1566.5H1541.3V1185H1515.2H1514.3H1489.2H1488.3H1462.2V1211.1H1437H1436.1H1410V1237.2H1384.9H1384H1358.9H1358H1331.9V1263.3H1306.7H1305.8H1279.7V1289.4H1253.6H1227.5V1315.5V1316.4V1341.5V1342.4V1367.5V1368.4V1393.5V1394.4V1419.5V1420.4V1445.5V1446.4V1471.5V1472.4V1497.5V1498.4V1523.5V1524.4V1549.5V1550.4V1575.5V1576.4V1601.6V1602.5V1627.7V1628.6V1653.7V1654.6V1679.7V1680.6V1705.7V1706.6V1731.7V1732.6V1757.7V1758.6V1783.8V1784.7V1809.8V1810.7V1835.8V1836.7V1861.8V1862.7V1887.9V1888.8V1913.9V1914.8V1940.9H1254.5H1279.6H1280.5H1306.6V1916H1331.8H1332.7H1358.8V1889.9V1889V1863.8V1862.9V1837.8V1836.9V1811.8V1810.9V1785.8V1784.9V1759.7V1758.8V1733.7V1732.8V1707.7V1706.8V1681.7H1384.9V1655.6H1411V1629.5H1436.1H1437H1462.2H1463.1H1488.2V1655.6H1514.3V1680.7V1681.6V1706.7V1707.6V1732.7V1733.6V1758.7V1759.6V1784.8V1785.7V1810.8V1811.7V1837.8H1540.4H1541.3H1567.4V1811.7H1592.6H1593.5H1619.6V1785.6H1645.7V1759.5V1758.6V1733.5V1732.6V1707.5V1706.6V1681.5V1680.6V1655.5V1654.6V1629.5V1628.6V1603.4V1602.5V1576.4H1619.6V1550.3H1593.5H1592.6H1567.4V1525.2H1593.5V1499.1H1619.6V1473V1472.1V1447H1645.7V1420.9V1420V1394.9V1394V1368.9V1368V1342.9V1342V1316.9V1316V1289.9H1619.6V1289.3ZM1514.4 1393.6V1394.5V1419.6V1420.5V1445.6H1488.3V1471.7V1472.6V1497.7H1462.2V1523.8H1437H1436.1H1410V1549.9H1384.9H1384H1358.9V1524.8V1523.9V1498.8V1497.9V1472.8V1471.9V1446.8V1445.9V1420.8V1419.9V1394.8V1393.9V1368.8H1385V1342.7H1410.1H1411H1437.1V1316.6H1462.3V1342.7H1488.4V1368.8H1514.5V1393.6H1514.4Z" fill="white"/>
        <path d="M2143 1807.6V1781.6H2116.9V1755.5H2090.9V1729.4H2064.8V1703.4H2038.7V1677.3H2012.7V1651.2H1986.6V1625.1H1960.5V1600H1986.6V1573.9V1573V1547.9H2012.7V1521.8V1520.9V1495.7H2038.7V1469.6V1468.7V1443.6V1442.6V1417.5H2064.8V1391.4V1390.5V1365.3H2090.9V1339.3V1338.3V1313.2H2116.9V1287.1V1286.2V1261.1H2143V1235V1234.1V1208.9V1208V1182.8V1181.9V1156.8V1155.8V1129.8H2116V1155.8H2090.9H2089.9H2063.9V1181.9H2038.7H2037.8H2011.7V1208V1208.9V1234.1V1235V1260.1H1985.7V1286.2V1287.1V1312.3H1959.6V1338.3V1339.3V1364.4H1933.5V1390.5V1391.4V1416.6V1417.5V1442.6H1907.4V1468.7V1469.6V1494.8H1881.4V1520.9V1521.8V1546.9H1856.2V1521.8V1520.9V1495.7V1494.8V1469.6V1468.7V1443.6V1442.6V1417.5V1416.6V1391.4V1390.5V1365.3V1364.4V1339.3V1338.3V1313.2V1312.3V1287.1V1286.2V1260.1H1829.2V1286.2H1804.1H1803.2H1777.1V1312.3H1751H1724.9V1338.3V1339.3V1364.4V1365.3V1390.5V1391.4V1416.6V1417.5V1442.6V1443.6V1468.7V1469.6V1494.8V1495.7V1520.9V1521.8V1546.9V1547.9V1573V1573.9V1599.1V1600V1625.1V1626.1V1651.2V1652.1V1677.3V1678.2V1703.4V1704.3V1729.4V1730.4V1755.5V1756.4V1781.6V1782.5V1807.6V1808.6V1833.7V1834.6V1859.8V1860.7V1885.9V1886.8V1911.9V1912.9V1938V1938.9V1965H1751.9H1777.1H1778H1804.1V1938.9H1829.2H1830.2H1856.2V1912.9V1911.9V1886.8V1885.9V1860.7V1859.8V1834.6V1833.7V1808.6V1807.6V1782.5V1781.6V1756.4V1755.5V1730.4V1729.4V1704.3H1881.4V1730.4H1907.4V1756.4H1933.5V1782.5H1959.6V1808.6H1985.7V1834.6H2011.7V1860.7H2037.8H2038.7H2064.8V1834.6H2089.9H2090.9H2116.9V1808.6H2142.1V1834.6H2169.1V1807.6H2143Z" fill="white"/>
        <path d="M1934.4 1338.3V1312.3H1908.4V1286.2H1881.4V1312.3V1313.2V1338.3V1339.3V1364.4V1365.3V1390.5V1391.4V1416.6V1417.5V1442.6V1443.6V1468.7V1469.6V1495.7H1908.4V1469.6V1468.7V1443.6H1934.4V1417.5V1416.6V1391.4V1390.5V1365.3H1960.5V1338.3H1934.4Z" fill="#0000FF"/>
        <path d="M1934.4 1312.3V1286.2H1908.4V1260.1H1882.3H1881.4H1855.3V1286.2V1287.1V1312.3V1313.2V1338.3V1339.3V1364.4V1365.3V1390.5V1391.4V1416.6V1417.5V1442.6V1443.6V1468.7V1469.6V1494.8V1495.7V1520.9V1521.8V1547.9H1882.3V1521.8V1520.9V1495.7V1494.8V1469.6V1468.7V1443.6V1442.6V1417.5V1416.6V1391.4V1390.5V1365.3V1364.4V1339.3V1338.3V1313.2V1312.3V1287.1H1907.4V1313.2H1933.5V1339.3H1960.5V1312.3H1934.4Z" fill="#F95F76"/>
        <path d="M1934.4 1807.6V1781.6H1908.4V1755.5H1881.4V1781.6V1782.5V1807.6V1808.6V1833.7V1834.6V1859.8V1860.7V1885.9V1886.8V1911.9V1912.9V1938.9H1907.4V1965H1933.5V1991.1H1960.5V1965V1964.1V1938.9V1938V1912.9V1911.9V1886.8V1885.9V1860.7V1859.8V1834.6V1833.7V1807.6H1934.4Z" fill="#0000FF"/>
        <path d="M1934.4 2016.2H1933.5H1908.4V1990.1H1882.3V1964.1H1856.2H1855.3H1830.2H1829.2H1803.2V1990.1V1991.1V2017.1H1829.2V2043.2H1855.3V2069.3H1881.4V2095.4H1907.4H1908.4H1934.4V2069.3H1960.5V2043.2V2042.3V2016.2H1934.4Z" fill="#000063"/>
        <path d="M1960.5 1807.6V1781.5H1934.4V1755.4H1908.3V1729.3H1882.2V1703.2H1855.2V1729.3V1730.2V1755.3V1756.2V1781.4V1782.3V1807.4V1808.3V1833.4V1834.3V1859.4V1860.3V1885.5V1886.4V1911.5V1912.4V1938.5H1881.3V1964.6H1907.4V1990.7H1933.5V2016.8H1959.6V2042.9H1986.6V2016.8V2015.9V1990.8V1989.9V1965V1964.1V1939V1938.1V1913V1912.1V1887V1886.1V1860.9V1860V1834.9V1834V1807.9H1960.5V1807.6ZM1959.6 1834.6V1859.7V1860.6V1885.8V1886.7V1911.8V1912.7V1937.8V1938.7V1963.8V1964.7V1989.8H1934.4V1963.7H1908.3V1938H1882.2V1912.9V1912V1886.9V1886V1860.8V1859.9V1834.8V1833.9V1808.8V1807.9V1782.8V1781.9V1756.7H1907.3V1782.8H1933.4V1808.9H1959.5V1834V1834.6H1959.6Z" fill="#F95F76"/>
        <path d="M1986.6 2042.3H1959.6V2068.4H1933.5V2094.4H1908.4H1907.4H1882.3V2068.4H1856.2V2042.3H1830.2V2016.2H1804.1V1991.1V1990.1V1965H1829.2H1830.2H1855.3H1856.2H1881.4V1991.1H1907.4V2017.1H1934.4V1990.1H1908.4V1964.1H1882.3V1938H1856.2H1855.3H1830.2H1829.2H1803.2V1964.1H1778H1777.1H1751V1991.1H1777.1V2017.1H1803.2V2043.2H1829.2V2069.3H1855.3V2095.4H1881.4V2121.4H1907.4H1908.4H1934.4V2095.4H1960.5V2069.3H1986.6V2042.3Z" fill="#0000FF"/>
        <path d="M2195.2 1208V1181.9H2168.2V1208V1208.9V1234.1H2142.1V1260.1V1261.1V1286.2V1287.1V1312.3H2116V1338.3V1339.3V1364.4H2089.9V1390.5V1391.4V1416.6H2063.9V1442.6V1443.6V1468.7V1469.6V1494.8H2037.8V1520.9V1521.8V1546.9H2011.7V1573V1573.9V1599.1H1985.7V1626.1H2011.7V1652.1H2037.8V1678.2H2064.8V1652.1H2090.9V1626.1V1625.1V1600H2116.9V1573.9V1573V1547.9V1546.9V1521.8H2143V1495.7V1494.8V1469.6H2169.1V1443.6V1442.6V1417.5H2195.2V1391.4V1390.5V1365.3V1364.4V1339.3H2221.2V1313.2V1312.3V1287.1V1286.2V1261.1V1260.1V1235V1234.1V1208H2195.2Z" fill="#000063"/>
        <path d="M2221.2 1885.9V1859.8H2195.2V1833.7H2169.1V1807.6H2142.1V1833.7H2116V1859.8H2090.9H2089.9H2063.9V1886.8H2089.9V1912.9H2116V1938.9H2142.1V1965H2168.2H2169.1H2195.2V1938.9H2221.2V1912.9H2247.3V1885.9H2221.2Z" fill="#000063"/>
        <path d="M2221.2 1208V1181.9H2195.1V1155.8H2169V1129.7H2142V1155.8V1156.7V1181.8V1182.7V1207.8V1208.7V1233.8H2116V1259.9V1260.8V1285.9V1286.8V1311.9H2089.9V1338V1338.9V1364H2063.8V1390.1V1391V1416.1H2037.7V1442.2V1443.1V1468.2V1469.1V1494.2H2011.6V1520.3V1521.2V1546.3H1985.5V1572.4V1573.3V1598.4H1959.4V1625.4H1985.5V1651.5H2011.6V1677.6H2037.7V1703.7H2063.8V1729.8H2089.9V1755.9H2116V1782H2142.1V1807.1H2116V1833.2H2090.9H2090H2063.9V1859.3H2037.8V1886.3H2063.9V1912.4H2090V1938.5H2116.1V1964.6H2142.2V1987.4H2168.3H2169.2H2195.3V1965H2221.4V1938.9H2247.5V1911.9H2220.5V1938H2194.4V1960.8H2169.3H2168.4H2143V1938H2116.9V1911.9H2090.8V1885.8H2064.7V1860.6H2089.9H2090.8H2116.9V1834.5H2143V1808.4H2168.1V1834.5H2194.2V1860.6H2220.3V1886.7H2247.3V1859.7H2221.2V1833.6H2195.1V1807.5H2169V1781.4H2143V1755.3H2116.9V1729.2H2090.8V1704.1V1703.2V1678.1V1677.2V1652.1H2116.9V1626V1625.1V1600H2143V1573.9V1573V1547.9V1547V1521.9H2169.1V1495.8V1494.9V1469.8H2195.2V1443.7V1442.8V1417.7H2221.3V1391.6V1390.7V1365.6V1364.7V1339.6H2247.4V1313.5V1312.6V1287.5V1286.6V1261.5V1260.6V1235V1234.1V1208H2221.2ZM2220.3 1235V1260.2V1261.1V1286.2V1287.1V1312.2V1313.1V1338.2H2194.2V1364.3V1365.2V1390.3V1391.2V1416.3H2168.1V1442.4V1443.3V1468.4H2142V1494.5V1495.4V1520.5H2116V1546.6V1547.5V1572.6V1573.5V1598.6H2089.9V1624.7V1625.6V1650.7H2063.8V1676.8H2038.6V1650.7H2012.5V1624.6H1986.4V1600H2012.5V1573.9V1573V1547.9H2038.6V1521.8V1520.9V1495.8H2064.7V1469.7V1468.8V1443.7V1442.8V1417.7H2090.8V1391.6V1390.7V1365.6H2116.9V1339.5V1338.6V1313.5H2143V1287.4V1286.5V1261.4V1260.5V1235H2169.1V1208.9V1208V1182.9H2194.2V1209H2220.3V1234.1V1235V1235Z" fill="#0000FF"/>
        <path d="M731.5 912.501V886.401H705.5V860.401H679.4V834.301H653.3H652.4H627.3H626.3H600.3V860.401H574.2V887.401H600.3V913.401H626.3V939.501H652.4V965.601H678.5H679.4H704.5H705.5H731.5V939.501H757.6V912.501H731.5Z" fill="#000063"/>
        <path d="M783.7 912.5H757.6V886.4H731.5V860.3H705.4V834.2H679.3V808.1H653.2H652.3H627.2H626.3H600.2V834.2H575.1H574.2H549H548.1H522V861.2H548.1V887.3H574.2V913.4H600.3V939.5H626.4V965.6H652.5V991.7H678.6H679.5H704.6H705.5H731.6V965.6H757.7V939.5H783.8V912.5H783.7ZM704.5 964.7H679.4H678.5H653.4V938.6H627.3V912.5H601.2V886.4H575.1V861.3H600.2H601.1H627.2V835.2H652.3H653.2H678.3V861.3H704.4V887.4H730.5V913.5H756.6V938.6H730.5V964.7H705.4H704.5Z" fill="#0000FF"/>
        <path d="M757.6 208.601V182.501H731.5V156.401H705.5V130.401H679.4V104.301H652.4V130.401V131.301V156.401V157.401V182.501V183.401V208.601V209.501V234.601V235.601V260.701V261.601V286.801V287.701V312.901V313.801V338.901V339.901V365.001V365.901V392.001H679.4V365.901V365.001V339.901V338.901V313.801V312.901V287.701V286.801V261.601V260.701V235.601V234.601V209.501V208.601V183.401V182.501V157.401H704.5V183.401H730.6V209.501H756.7V234.601V235.601V260.701V261.601V286.801V287.701V312.901V313.801V338.901V339.901V365.901H783.7V339.901V338.901V313.801V312.901V287.701V286.801V261.601V260.701V235.601V234.601V208.601H757.6Z" fill="#F95F76"/>
        <path d="M731.5 208.6V182.5H705.5V156.4H678.5V182.5V183.4V208.6V209.5V234.6V235.6V260.7V261.6V286.8V287.7V312.9V313.8V338.9V339.9V365V365.9V392H705.5V365.9H730.6H731.5H757.6V339.9V338.9V313.8V312.9V287.7V286.8V261.6V260.7V235.6V234.6V208.6H731.5Z" fill="#0000FF"/>
        <path d="M913.1 0V26.1H888H887H861V52.1H835.8H834.9H808.8V78.2V79.1V104.3V105.2V130.4V131.3V156.4V157.4V182.5V183.4V208.6V209.5V234.6V235.6V260.7V261.6V286.8V287.7V312.9V313.8V338.9H782.8V365H757.6H756.7H731.5H730.6H704.5V391.1H679.4H678.5H653.3V365.9V365V339.9V338.9V313.8V312.9V287.7V286.8V261.6V260.7V235.6V234.6V209.5V208.6V183.4V182.5V157.4V156.4V131.3V130.4V104.3H626.3V130.4H601.2H600.3H574.2V156.4H549H548.1H522V182.5V183.4V208.6V209.5V234.6V235.6V260.7V261.6V286.8V287.7V312.9V313.8V338.9V339.9V365V365.9V391.1V392V417.2V418.1V443.2V444.2V469.3V470.2V495.4V496.3V521.4V522.4V547.5V548.4V573.6V574.5V599.7V600.6V625.7V626.7V651.8V652.7V677.9V678.8V703.9V704.9V730V730.9V756.1V757V782.2V783.1V808.2V809.2V835.2H548.1H549H574.2H575.1H601.2V809.2H626.3H627.3H653.3V783.1V782.2V757V756.1V730.9V730V704.9V703.9V678.8V677.9V652.7V651.8V626.7V625.7V600.6V599.7V574.5V573.6V548.4V547.5V522.4H678.5H679.4H705.5V496.3H730.6H731.5H757.6V470.2H782.8H783.7H808.8V495.4V496.3V521.4V522.4V547.5V548.4V573.6V574.5V599.7V600.6V625.7V626.7V651.8V652.7V677.9V678.8V704.9H834.9H835.8H861H861.9H888V678.8H913.1H914H940.1V652.7V651.8V626.7V625.7V600.6V599.7V574.5V573.6V548.4V547.5V522.4V521.4V496.3V495.4V470.2V469.3V444.2V443.2V418.1V417.2V392V391.1V365.9V365V339.9V338.9V313.8V312.9V287.7V286.8V261.6V260.7V235.6V234.6V209.5V208.6V183.4V182.5V157.4V156.4V131.3V130.4V105.2V104.3V79.1V78.2V53.1V52.1V27V26.1V0H913.1Z" fill="white"/>
        <path d="M705.5 547.501V522.401H730.6H731.5H757.6V496.301H782.8H783.7H809.8V469.301H783.7H782.8H756.7V495.401H731.5H730.6H704.5V521.401H679.4H678.5H652.4V548.401H678.5V574.501H704.5V600.601H730.6V626.701H756.7V652.701H783.7V626.701H809.8V599.701H782.8V625.701H757.6V599.701H731.5V573.601H705.5V548.401V547.501Z" fill="#0000FF"/>
        <path d="M783.7 495.4H782.8H756.7V521.4H731.5H730.6H704.5V547.5V548.4V574.5H730.6V600.6H756.7V626.7H783.7V600.6H809.8V574.5V573.6V548.4V547.5V522.4V521.4V495.4H783.7Z" fill="#000063"/>
        <path d="M731.5 651.799V625.699H705.5V599.699H678.5V625.699V626.699V651.799V652.699V677.899V678.799V703.899V704.899V729.999V730.899V756.099V756.999V782.199V783.099V809.199H704.5V835.199H730.6V861.299H757.6V835.199V834.299V809.199V808.199V783.099V782.199V756.999V756.099V730.899V729.999V704.899V703.899V678.799V677.899V651.799H731.5Z" fill="#0000FF"/>
        <path d="M757.6 651.8V625.7H731.5V599.6H705.4V573.5H679.3V547.4H652.3V573.5V574.4V599.5V600.4V625.5V626.4V651.5V652.4V677.5V678.4V703.5V704.4V730V730.9V756V756.9V782V782.9V809H678.4V835.1H704.5V861.2H730.6V887.3H756.7V913.4H783.7V887.3V886.4V861.3V860.4V835.3V834.4V809.3V808.4V783.3V782.4V757V756.1V731V730V704.9V704V678.9V678V651.9H757.6V651.8ZM756.7 678.8V703.9V704.8V730V730.9V756V756.9V782V782.9V808V808.9V834V834.9V860H731.6V833.9H705.5V807.8H679.4V782.7V781.8V757V756.1V731V730V704.9V704V678.9V678V652.9V652V626.9V626V600.9H704.5V627H730.6V653.1H756.7V678.2V678.8Z" fill="#F95F76"/>
        <path d="M1018.3 782.2V756.1H992.3V730H966.2V703.9H940.1H939.2H914H913.1H887V730H861V757H887V783.1H913.1V809.2H939.2V835.2H965.3H966.2H991.3H992.3H1018.3V809.2H1044.4V782.2H1018.3Z" fill="#000063"/>
        <path d="M1070.5 782.201H1044.4V756.101H1018.3V730.001H992.2V703.901H966.1V677.801H940H939.1H914H913.1H887V703.901H861.9H861H835.9H835H808.9V730.901H835V757.001H861V783.101H887V809.201H913.1V835.301H939.2V861.401H965.3H966.2H991.3H992.2H1018.3V835.301H1044.4V809.201H1070.5V782.201ZM991.3 834.301H966.2H965.3H940.2V808.201H914V782.101H888V756.001H861.9V730.901H887H887.9H914V704.801H939.1H940H965.1V730.901H991.2V757.001H1017.3V783.101H1043.4V808.201H1017.3V834.301H992.2H991.3V834.301Z" fill="#0000FF"/>
        <path d="M1018.3 104.3V78.1996H992.3V52.0996H965.3V78.1996V79.0996V104.3V105.2V130.4V131.3V156.4V157.4V182.5V183.4V208.6V209.5V234.6V235.6V260.7V261.6V286.8V287.7V312.9V313.8V338.9V339.9V365V365.9V391.1V392V417.2V418.1V443.2V444.2V469.3V470.2V495.4V496.3V521.4V522.4V547.5V548.4V573.6V574.5V599.7V600.6V625.7V626.7V651.8V652.7V678.8H991.3V704.9H1017.4V730.9H1044.4V704.9V703.9V678.8V677.9V652.7V651.8V626.7V625.7V600.6V599.7V574.5V573.6V548.4V547.5V522.4V521.4V496.3V495.4V470.2V469.3V444.2V443.2V418.1V417.2V392V391.1V365.9V365V339.9V338.9V313.8V312.9V287.7V286.8V261.6V260.7V235.6V234.6V209.5V208.6V183.4V182.5V157.4V156.4V131.3V130.4V104.3H1018.3Z" fill="#0000FF"/>
        <path d="M1044.4 104.3V78.2H1018.3V52.1H992.2V26.1H966.1V0H939.1V26.1V27V52.1V53V78.1V79V104.1V105V130.1V131V156.1V157V182.1V183V208.1V209V234.1V235V260.1V261V286.1V287V312.1V313V338.1V339V365V365.9V391V391.9V417V417.9V443V443.9V469V469.9V495V495.9V521V521.9V547V547.9V573V573.9V599V599.9V625V625.9V651V651.9V678H965.2V704.1H991.3V730.2H1017.4V757H1043.5V783.1H1070.5V757V756.1V731V730V704.9V704V678.9V678V652.9V652V626.9V626V600.9V600V574.9V574V548.9V548V522.9V522V496.9V496V470.9V470V444.9V444V418.9V418V392V391.1V366V365V339.9V339V313.9V313V287.9V287V261.9V261V235.9V235V209.9V209V183.9V183V157.9V157V131.9V131V104.9H1044.4V104.3ZM1018.3 730V703.9H992.2V677.8H966.1V652.7V651.8V626.7V625.8V600.7V599.8V574.7V573.8V548.7V547.8V522.7V521.8V496.7V495.8V470.7V469.8V444.7V443.8V418.7V417.8V392V391.1V366V365V339.9V339V313.9V313V287.9V287V261.9V261V235.9V235V209.9V209V183.9V183V157.9V157V131.9V131V105.9V105V79.1V78.2V53.1H991.2V79.2H1017.3V105.3H1043.4V130.4V131.3V156.4V157.3V182.4V183.3V208.4V209.3V234.4V235.3V260.4V261.3V286.4V287.3V312.4V313.3V338.4V339.3V365V365.9V391V391.9V417V417.9V443V443.9V469V469.9V495V495.9V521V521.9V547V547.9V573V573.9V599V599.9V625V625.9V651V651.9V677V677.9V703V703.9V730H1018.3Z" fill="#F95F76"/>
        <path d="M1435.5 47.0996H1434.6H1408.5V73.0996H1383.3H1382.4H1356.3V99.1996H1331.2H1330.3H1305.1H1304.2H1278.1V125.3H1253H1252.1H1226V151.4H1200.8H1199.9H1174.8H1173.8H1147.8V177.4H1122.6H1121.7H1095.6V203.5H1070.5H1069.6H1043.5V229.6V230.5V255.6V256.6V281.7V282.6V307.8V308.7V333.9V334.8V359.9V360.9V386V386.9V412.1V413V438.1V439.1V464.2V465.1V490.3V491.2V516.4V517.3V542.4V543.4V568.5V569.4V594.6V595.5V620.7V621.6V646.7V647.7V672.8V673.7V698.9V699.8V724.9V725.9V751V751.9V777.1V778V803.2V804.1V829.2V830.2V855.3V856.2V882.3H1070.5H1095.6H1096.6H1121.7H1122.6H1148.7V856.2H1173.8V882.3H1200.8V856.2H1226.9V830.2H1252.1H1253H1279.1V804.1H1304.2H1305.1H1330.3H1331.2H1357.3V778H1382.4H1383.3H1409.4V751.9H1434.6H1435.5H1461.6V725.9V724.9V699.8V698.9V673.7V672.8V647.7V646.7V620.7H1435.5H1434.6H1408.5V646.7H1383.3H1382.4H1356.3V672.8H1331.2H1330.3H1304.2V698.9H1279.1H1278.1H1253H1252.1H1226V724.9H1200.8H1199.9H1174.8V699.8V698.9V673.7V672.8V647.7V646.7V621.6V620.7V595.5V594.6V569.4H1199.9H1200.8H1226.9V543.4H1252.1H1253H1279.1V517.3H1304.2H1305.1H1330.3H1331.2H1357.3V491.2H1382.4H1383.3H1409.4V465.1H1434.6H1435.5H1461.6V439.1V438.1V413V412.1V386.9V386V360.9V359.9V333.9H1435.5H1434.6H1408.5V359.9H1383.3H1382.4H1356.3V386H1331.2H1330.3H1304.2V412.1H1279.1H1278.1H1253H1252.1H1226V438.1H1200.8H1199.9H1174.8V413V412.1V386.9V386V360.9V359.9V334.8V333.9V308.7V307.8V282.6H1199.9H1200.8H1226.9V256.6H1252.1H1253H1279.1V230.5H1304.2H1305.1H1330.3H1331.2H1357.3V204.4H1382.4H1383.3H1409.4V178.4H1434.6H1435.5H1461.6V152.3V151.4V126.2V125.3V100.1V99.1996V74.0996V73.0996V47.0996H1435.5Z" fill="white"/>
        <path d="M1513.7 255.6V229.6H1487.6V203.5H1461.6H1460.6H1435.5H1434.6H1408.5V229.6H1383.3H1382.4H1356.3V255.6H1331.2H1330.3H1305.1H1304.2H1278.1V281.7H1253H1252.1H1226V307.8V308.7V334.8H1252.1V360.9H1278.1V386.9H1305.1V360.9H1330.3H1331.2H1357.3V334.8H1382.4H1383.3H1409.4V308.7H1434.6H1435.5H1460.6H1461.6H1487.6V282.6H1512.8H1513.7H1539.8V255.6H1513.7Z" fill="#000063"/>
        <path d="M1513.7 542.399V516.399H1487.6V490.299H1461.6H1460.6H1435.5H1434.6H1408.5V516.399H1383.3H1382.4H1356.3V542.399H1331.2H1330.3H1305.1H1304.2H1278.1V568.499H1253H1252.1H1226V594.599V595.499V621.599H1252.1V647.699H1278.1V673.699H1305.1V647.699H1330.3H1331.2H1357.3V621.599H1382.4H1383.3H1409.4V595.499H1434.6H1435.5H1460.6H1461.6H1487.6V569.399H1512.8H1513.7H1539.8V542.399H1513.7Z" fill="#000063"/>
        <path d="M1226.9 672.799V646.699H1199.9V672.799V673.699V698.899V699.799V725.899H1226.9V699.799H1253V672.799H1226.9Z" fill="#0000FF"/>
        <path d="M1253 385.999V359.899H1226.9V333.899H1200.8V307.799H1173.8V333.899V334.799V359.899V360.899V385.999V386.899V412.099V412.999V439.099H1200.8V412.999V412.099V386.899V385.999V360.899H1226V386.899H1252.1V412.999H1279.1V385.999H1253Z" fill="#F95F76"/>
        <path d="M1253 672.8V646.7H1226.9V620.7H1200.8V594.6H1173.8V620.7V621.6V646.7V647.7V672.8V673.7V698.9V699.8V725.9H1200.8V699.8V698.9V673.7V672.8V647.7H1226V673.7H1252.1V699.8H1279.1V672.8H1253Z" fill="#F95F76"/>
        <path d="M1513.7 829.2V803.2H1487.6V777.1H1461.6H1460.6H1435.5H1434.6H1408.5V803.2H1383.3H1382.4H1356.3V829.2H1331.2H1330.3H1305.1H1304.2H1278.1V855.3H1253H1252.1H1226V881.4H1200.8H1199.9H1174.8H1173.8H1148.7H1147.8H1121.7V907.4H1095.6V934.4H1121.7V960.5H1147.8V986.6H1173.8V1012.7H1199.9H1200.8H1226H1226.9H1253V986.6H1278.1H1279.1H1304.2H1305.1H1331.2V960.5H1357.3V934.4H1382.4H1383.3H1409.4V908.4H1434.6H1435.5H1460.6H1461.6H1487.6V882.3H1512.8H1513.7H1539.8V856.2V855.3V829.2H1513.7Z" fill="#000063"/>
        <path d="M1513.7 125.299V99.1992H1486.7V125.299V126.199V151.399V152.299V178.399H1512.8V204.399H1539.8V178.399V177.399V152.299V151.399V125.299H1513.7Z" fill="#0000FF"/>
        <path d="M1513.7 412.1V386H1486.7V412.1V413V438.1V439.1V465.1H1512.8V491.2H1539.8V465.1V464.2V439.1V438.1V412.1H1513.7Z" fill="#0000FF"/>
        <path d="M1513.7 698.899V672.799H1486.7V698.899V699.799V724.899V725.899V751.899H1512.8V777.999H1539.8V751.899V750.999V725.899V724.899V698.899H1513.7Z" fill="#0000FF"/>
        <path d="M1539.8 698.9V672.8H1513.7V646.7H1487.6V620.6H1460.6V646.7V647.6V672.7V673.6V698.7V699.6V724.7V725.6V751.7H1486.7V778H1512.8V804.1H1538.9V830.2H1565.9V804.1V803.2V778V777.1V752V751V725.9V725V698.9H1539.8ZM1538.8 725.9V751V751.9V777H1513.7V751H1487.6V725.9V725V699.9V699V673.9H1512.7V700H1538.8V725.1V725.9Z" fill="#F95F76"/>
        <path d="M1539.8 125.3V99.1996H1513.7V73.0996H1487.6V47.0996H1460.6V73.1996V74.0996V99.1996V100.1V125.2V126.1V151.2V152.1V178.2H1486.7V204.3H1512.8V230.4H1538.9V256.5H1565.9V230.4V229.5V204.4V203.5V178.4V177.5V152.4V151.5V125.4H1539.8V125.3ZM1538.8 152.3V177.4V178.3V203.4H1513.7V177.3H1487.6V152.2V151.3V126.2V125.3V100.2H1512.7V126.3H1538.8V151.4V152.3Z" fill="#F95F76"/>
        <path d="M1539.8 412.099V385.999H1513.7V359.899H1487.6V333.799H1460.6V359.899V360.799V385.999V386.899V411.999V412.899V437.999V438.899V464.999H1486.7V491.099H1512.8V517.199H1538.9V543.299H1565.9V517.199V516.299V491.199V490.299V465.199V464.299V439.199V438.299V412.199H1539.8V412.099ZM1538.8 439.099V464.199V465.099V490.199H1513.7V464.099H1487.6V438.999V438.099V412.999V412.099V386.999H1512.7V412.999H1538.8V438.099V439.099Z" fill="#F95F76"/>
        <path d="M1565.8 255.599H1539.7V229.499H1513.6V203.399H1487.5V177.299H1461.4H1460.5H1435.4H1434.5H1408.4V203.399H1383.3H1382.4H1356.3V229.499H1331.2H1330.3H1305.2H1304.3H1278.2V255.599H1253H1252.1H1226V281.699H1200.9H1200H1173.9V308.699H1200V334.799H1226.1V359.899H1200V385.999V386.899V411.999V412.899V438.999H1227V412.999H1253.1V386.899H1278.2V412.999H1305.2V386.899H1330.3H1331.2H1357.3V360.799H1382.4H1383.3H1409.4V334.699H1434.6H1435.5H1460.6H1461.5H1487.6V308.599H1512.7H1513.6H1539.7V282.499H1565.8V255.599V255.599ZM1226.9 360.899H1252V385.999H1226.9V360.899ZM1512.8 281.699H1486.7V307.799H1461.6H1460.7H1435.6H1434.7H1408.6V333.899H1383.5H1382.6H1356.5V359.999H1331.4H1330.5H1304.4V385.999H1279.2V359.899H1253V333.799H1226.9V308.699V307.799V282.699H1252H1252.9H1279V256.599H1304.2H1305.1H1330.2H1331.1H1357.2V230.499H1382.3H1383.2H1409.3V204.399H1434.5H1435.4H1460.5H1461.4H1486.5V230.499H1512.6V256.599H1538.7V281.699H1513.6H1512.8V281.699Z" fill="#0000FF"/>
        <path d="M1565.8 542.4H1539.7V516.3H1513.6V490.2H1487.5V464.1H1461.4H1460.5H1435.4H1434.5H1408.4V490.2H1383.3H1382.4H1356.3V516.3H1331.2H1330.3H1305.2H1304.3H1278.2V542.4H1253H1252.1H1226V568.5H1200.9H1200H1173.9V595.5H1200V621.6H1226.1V647.7H1252.2V673.8H1278.3V699.9H1305.3V673.8H1330.4H1331.3H1357.4V647.7H1382.5H1383.4H1409.5V621.6H1434.7H1435.6H1460.7H1461.6H1487.7V595.5H1512.8H1513.7H1539.8V569.4H1565.9V542.4H1565.8ZM1512.8 568.5H1486.7V594.6H1461.6H1460.7H1435.6H1434.7H1408.6V620.7H1383.5H1382.6H1356.5V646.8H1331.4H1330.5H1304.4V672.9H1279.2V646.8H1253V620.7H1226.9V595.6V594.7V569.6H1252H1252.9H1279V543.5H1304.2H1305.1H1330.2H1331.1H1357.2V517.4H1382.3H1383.2H1409.3V491.3H1434.5H1435.4H1460.5H1461.4H1486.5V517.4H1512.6V543.5H1538.7V568.6H1513.6H1512.8V568.5Z" fill="#0000FF"/>
        <path d="M1539.8 829.2V803.1H1513.7V777H1487.6V751H1461.5H1460.6H1435.5H1434.6H1408.5V777.1H1383.4H1382.5H1356.4V803.2H1331.3H1330.4H1305.3H1304.4H1278.3V829.3H1253H1252.1H1226V855.4H1200.9H1200H1174.8H1173.9H1147.8V881.5H1122.7H1121.8H1096.7H1095.8H1070.7H1069.8H1043.7V908.5H1069.8V934.6H1095.9V960.7H1122V986.8H1148.1V1012.9H1174.2V1039H1200.3H1201.2H1226.3H1227.2H1253.3V1012.9H1278.4H1279.3H1305.4V986.8H1330.5H1331.4H1357.5V960.7H1382.6H1383.5H1409.6V934.6H1434.8H1435.7H1460.8H1461.7H1487.8V908.5H1512.9H1513.8H1539.9V882.4H1566V856.3V855.4V829.3H1539.8V829.2ZM1538.8 856.2V881.3H1513.7H1512.8H1486.7V907.4H1461.6H1460.7H1435.6H1434.7H1408.6V933.5H1383.5H1382.6H1356.5V959.6H1331.4H1330.5H1304.4V985.7H1279.2H1278.3H1252.2V1011.8H1227.1H1226.2H1201.1H1200.2H1175V985.7H1148.9V959.6H1122.8V933.5H1096.7V908.4H1121.8H1122.7H1148.8V882.3H1174H1174.9H1200.1H1201H1227.1V856.2H1252.2H1253.1H1279.2V830.1H1304.4H1305.3H1330.4H1331.3H1357.4V804H1382.5H1383.4H1409.5V778H1434.7H1435.6H1460.7H1461.6H1486.7V804.1H1512.8V830.2H1538.9V855.3V856.2H1538.8Z" fill="#0000FF"/>
        <path d="M2611.4 1127.7H2610.4H2584.4V1153.7H2559.2H2558.3H2532.2V1179.8H2507.1H2506.1H2481H2480.1H2454V1205.9H2428.9H2427.9H2401.9V1231.9H2376.7H2375.8H2350.6H2349.7H2323.6V1258H2298.5H2297.6H2271.5V1284.1H2246.4H2245.4H2219.4V1310.2V1311.1V1336.2V1337.2V1362.3V1363.2V1388.4V1389.3V1414.5V1415.4V1440.5V1441.5V1466.6V1467.5V1492.7V1493.6V1518.7V1519.7V1544.8V1545.7V1570.9V1571.8V1597V1597.9V1623V1624V1649.1V1650V1675.2V1676.1V1701.2V1702.2V1727.3V1728.2V1753.4V1754.3V1779.5V1780.4V1805.5V1806.5V1831.6V1832.5V1857.7V1858.6V1883.8V1884.7V1909.8V1910.8V1935.9V1936.8V1962.9H2246.4H2271.5H2272.4H2297.6H2298.5H2324.6V1936.8H2349.7V1962.9H2376.7V1936.8H2402.8V1910.8H2427.9H2428.9H2454.9V1884.7H2480.1H2481H2506.1H2507.1H2533.1V1858.6H2558.3H2559.2H2585.3V1832.5H2610.4H2611.4H2637.4V1806.5V1805.5V1780.4V1779.5V1754.3V1753.4V1728.2V1727.3V1701.2H2611.4H2610.4H2584.4V1727.3H2559.2H2558.3H2532.2V1753.4H2507.1H2506.1H2480.1V1779.5H2454.9H2454H2428.9H2427.9H2401.9V1805.5H2376.7H2375.8H2350.6V1780.4V1779.5V1754.3V1753.4V1728.2V1727.3V1702.2V1701.2V1676.1V1675.2V1650H2375.8H2376.7H2402.8V1624H2427.9H2428.9H2454.9V1597.9H2480.1H2481H2506.1H2507.1H2533.1V1571.8H2558.3H2559.2H2585.3V1545.7H2610.4H2611.4H2637.4V1519.7V1518.7V1493.6V1492.7V1467.5V1466.6V1441.5V1440.5V1414.5H2611.4H2610.4H2584.4V1440.5H2559.2H2558.3H2532.2V1466.6H2507.1H2506.1H2480.1V1492.7H2454.9H2454H2428.9H2427.9H2401.9V1518.7H2376.7H2375.8H2350.6V1493.6V1492.7V1467.5V1466.6V1441.5V1440.5V1415.4V1414.5V1389.3V1388.4V1363.2H2375.8H2376.7H2402.8V1337.2H2427.9H2428.9H2454.9V1311.1H2480.1H2481H2506.1H2507.1H2533.1V1285H2558.3H2559.2H2585.3V1258.9H2610.4H2611.4H2637.4V1232.9V1231.9V1206.8V1205.9V1180.7V1179.8V1154.7V1153.7V1127.7H2611.4Z" fill="white"/>
        <path d="M2689.6 1336.2V1310.2H2663.5V1284.1H2637.4H2636.5H2611.4H2610.4H2584.4V1310.2H2559.2H2558.3H2532.2V1336.2H2507.1H2506.1H2481H2480.1H2454V1362.3H2428.9H2427.9H2401.9V1388.4V1389.3V1415.4H2427.9V1441.5H2454V1467.5H2481V1441.5H2506.1H2507.1H2533.1V1415.4H2558.3H2559.2H2585.3V1389.3H2610.4H2611.4H2636.5H2637.4H2663.5V1363.2H2688.6H2689.6H2715.6V1336.2H2689.6Z" fill="#000063"/>
        <path d="M2689.6 1623V1597H2663.5V1570.9H2637.4H2636.5H2611.4H2610.4H2584.4V1597H2559.2H2558.3H2532.2V1623H2507.1H2506.1H2481H2480.1H2454V1649.1H2428.9H2427.9H2401.9V1675.2V1676.1V1702.2H2427.9V1728.2H2454V1754.3H2481V1728.2H2506.1H2507.1H2533.1V1702.2H2558.3H2559.2H2585.3V1676.1H2610.4H2611.4H2636.5H2637.4H2663.5V1650H2688.6H2689.6H2715.6V1623H2689.6Z" fill="#000063"/>
        <path d="M2402.8 1753.4V1727.3H2375.8V1753.4V1754.3V1779.5V1780.4V1806.5H2402.8V1780.4H2428.9V1753.4H2402.8Z" fill="#0000FF"/>
        <path d="M2428.9 1466.6V1440.5H2402.8V1414.5H2376.7V1388.4H2349.7V1414.5V1415.4V1440.5V1441.5V1466.6V1467.5V1492.7V1493.6V1519.7H2376.7V1493.6V1492.7V1467.5V1466.6V1441.5H2401.9V1467.5H2427.9V1493.6H2454.9V1466.6H2428.9Z" fill="#F95F76"/>
        <path d="M2428.9 1753.4V1727.3H2402.8V1701.2H2376.7V1675.2H2349.7V1701.2V1702.2V1727.3V1728.2V1753.4V1754.3V1779.5V1780.4V1806.5H2376.7V1780.4V1779.5V1754.3V1753.4V1728.2H2401.9V1754.3H2427.9V1780.4H2454.9V1753.4H2428.9Z" fill="#F95F76"/>
        <path d="M2689.6 1909.8V1883.8H2663.5V1857.7H2637.4H2636.5H2611.4H2610.4H2584.4V1883.8H2559.2H2558.3H2532.2V1909.8H2507.1H2506.1H2481H2480.1H2454V1935.9H2428.9H2427.9H2401.9V1962H2376.7H2375.8H2350.6H2349.7H2324.6H2323.6H2297.6V1988H2271.5V2015H2297.6V2041.1H2323.6V2067.2H2349.7V2093.3H2375.8H2376.7H2401.9H2402.8H2428.9V2067.2H2454H2454.9H2480.1H2481H2507.1V2041.1H2533.1V2015H2558.3H2559.2H2585.3V1989H2610.4H2611.4H2636.5H2637.4H2663.5V1962.9H2688.6H2689.6H2715.6V1936.8V1935.9V1909.8H2689.6Z" fill="#000063"/>
        <path d="M2689.6 1205.9V1179.8H2662.6V1205.9V1206.8V1231.9V1232.9V1258.9H2688.6V1285H2715.6V1258.9V1258V1232.9V1231.9V1205.9H2689.6Z" fill="#0000FF"/>
        <path d="M2689.6 1492.7V1466.6H2662.6V1492.7V1493.6V1518.7V1519.7V1545.7H2688.6V1571.8H2715.6V1545.7V1544.8V1519.7V1518.7V1492.7H2689.6Z" fill="#0000FF"/>
        <path d="M2689.6 1779.5V1753.4H2662.6V1779.5V1780.4V1805.5V1806.5V1832.5H2688.6V1858.6H2715.6V1832.5V1831.6V1806.5V1805.5V1779.5H2689.6Z" fill="#0000FF"/>
        <path d="M2715.6 1779.5V1753.4H2689.5V1727.3H2663.4V1701.2H2636.4V1727.3V1728.2V1753.3V1754.2V1779.3V1780.2V1805.3V1806.2V1832.3H2662.5V1858.4H2688.6V1884.5H2714.7V1910.6H2741.7V1884.5V1883.6V1858.5V1857.6V1832.5V1831.6V1806.5V1805.6V1779.5H2715.6ZM2714.7 1806.5V1831.6V1832.5V1857.6H2689.6V1831.5H2663.5V1806.4V1805.5V1780.4V1779.5V1754.4H2688.6V1780.5H2714.7V1805.6V1806.5Z" fill="#F95F76"/>
        <path d="M2715.6 1205.9V1179.8H2689.5V1153.7H2663.4V1127.6H2636.4V1153.7V1154.6V1179.7V1180.6V1205.7V1206.6V1231.7V1232.6V1258.7H2662.5V1284.8H2688.6V1310.9H2714.7V1337H2741.7V1310.9V1310V1285V1284.1V1259V1258.1V1233V1232.1V1206H2715.6V1205.9ZM2714.7 1232.9V1258V1258.9V1284H2689.6V1258H2663.5V1232.9V1232V1206.9V1206V1180.9H2688.6V1207H2714.7V1232.1V1232.9Z" fill="#F95F76"/>
        <path d="M2715.6 1492.7V1466.6H2689.5V1440.5H2663.4V1414.4H2636.4V1440.5V1441.4V1466.5V1467.4V1492.5V1493.4V1518.5V1519.4V1545.5H2662.5V1571.6H2688.6V1597.7H2714.7V1623.8H2741.7V1597.7V1596.8V1571.7V1570.8V1545.7V1544.8V1519.7V1518.8V1492.7H2715.6ZM2714.7 1519.7V1544.8V1545.7V1570.8H2689.6V1544.7H2663.5V1519.6V1518.7V1493.6V1492.7V1467.6H2688.6V1493.7H2714.7V1518.8V1519.7Z" fill="#F95F76"/>
        <path d="M2741.7 1336.2H2715.6V1310.1H2689.5V1284H2663.4V1258H2637.3H2636.4H2611.3H2610.4H2584.3V1284.1H2559.2H2558.3H2532.2V1310.2H2507.1H2506.2H2481H2480.1H2454V1336.3H2428.9H2428H2401.9V1362.4H2376.8H2375.9H2349.8V1389.4H2375.9V1415.5H2402V1440.6H2375.9V1466.7V1467.6V1492.7V1493.6V1519.7H2402.9V1493.6H2429V1467.5H2454.1V1493.6H2481.1V1467.5H2506.2H2507.1H2533.2V1441.4H2558.3H2559.2H2585.3V1415.3H2610.5H2611.4H2636.5H2637.4H2663.5V1389.2H2688.6H2689.5H2715.6V1363.1H2741.7V1336.2V1336.2ZM2402.8 1441.5H2427.9V1466.6H2402.8V1441.5ZM2688.6 1362.3H2662.5V1388.4H2637.4H2636.5H2611.4H2610.5H2584.4V1414.5H2559.3H2558.4H2532.3V1440.6H2507.2H2506.3H2480.2V1466.7H2455.1V1440.6H2429V1414.5H2402.9V1389.4V1388.5V1363.4H2428H2428.9H2455V1337.3H2480.1H2481H2506.1H2507H2533.1V1311.2H2558.2H2559.1H2585.2V1285H2610.4H2611.3H2636.4H2637.3H2662.4V1311.1H2688.5V1337.2H2714.6V1362.3H2689.5H2688.6V1362.3Z" fill="#0000FF"/>
        <path d="M2741.7 1623H2715.6V1597H2689.5V1570.9H2663.4V1544.8H2637.3H2636.4H2611.3H2610.4H2584.3V1570.9H2559.2H2558.3H2532.2V1597H2507.1H2506.2H2481H2480.1H2454V1623.1H2428.9H2428H2401.9V1649.2H2376.8H2375.9H2349.8V1676.2H2375.9V1702.3H2402V1728.4H2428.1V1754.5H2454.2V1780.6H2481.2V1754.5H2506.3H2507.2H2533.3V1728.4H2558.4H2559.3H2585.4V1702.3H2610.6H2611.5H2636.6H2637.5H2663.6V1676.2H2688.7H2689.6H2715.7V1650H2741.8V1623H2741.7ZM2688.6 1649.1H2662.5V1675.2H2637.4H2636.5H2611.4H2610.5H2584.4V1701.3H2559.3H2558.4H2532.3V1727.4H2507.2H2506.3H2480.2V1753.5H2455.1V1727.4H2429V1701.3H2402.9V1676.2V1675.3V1650H2428H2428.9H2455V1624H2480.1H2481H2506.1H2507H2533.1V1597.9H2558.2H2559.1H2585.2V1571.8H2610.4H2611.3H2636.4H2637.3H2662.4V1597.9H2688.5V1624H2714.6V1649.1H2689.5H2688.6Z" fill="#0000FF"/>
        <path d="M2715.6 1909.8V1883.7H2689.5V1857.6H2663.4V1831.5H2637.3H2636.4H2611.3H2610.4H2584.3V1857.6H2559.2H2558.3H2532.2V1883.7H2507.1H2506.2H2481H2480.1H2454V1909.8H2428.9H2428H2401.9V1935.9H2376.8H2375.9H2350.8H2349.9H2323.8V1962H2298.7H2297.8H2272.7H2271.8H2246.7H2245.8H2219.7V1989H2245.8V2015.1H2271.9V2041.2H2298V2067.3H2324.1V2093.4H2350.2V2119.5H2376.3H2377.2H2402.3H2403.2H2429.3V2093.4H2454.4H2455.3H2481.4V2067.3H2506.5H2507.4H2533.5V2041.2H2558.6H2559.5H2585.6V2015H2610.8H2611.7H2636.8H2637.7H2663.8V1989H2688.9H2689.8H2715.9V1962.9H2742V1936.8V1935.9V1909.8H2715.6V1909.8ZM2714.7 1936.8V1961.9H2689.6H2688.7H2662.6V1988H2637.5H2636.6H2611.5H2610.6H2584.5V2014.1H2559.4H2558.5H2532.4V2040.2H2507.3H2506.4H2480.3V2066.3H2455.2H2454.3H2428.2V2092.4H2403.1H2402.2H2377.1H2376.2H2351.1V2066.3H2325V2040.2H2298.9V2014.1H2272.8V1989H2297.9H2298.8H2324.9V1962.9H2350.1H2351H2376.1H2377H2403.1V1936.8H2428.2H2429.1H2455.2V1910.7H2480.3H2481.2H2506.3H2507.2H2533.3V1884.6H2558.4H2559.3H2585.4V1858.5H2610.6H2611.5H2636.6H2637.5H2662.6V1884.6H2688.7V1910.7H2714.8V1935.8V1936.8H2714.7Z" fill="#0000FF"/>
        <path d="M3222 1407.2V1381.1H3195.9V1355.1H3168.9V1381.1V1382.1V1407.2V1408.1V1433.3V1434.2V1459.4V1460.3V1486.4H3195V1512.4H3221H3222H3248V1486.4V1485.4V1460.3V1459.4V1434.2V1433.3V1407.2H3222Z" fill="#0000FF"/>
        <path d="M3222 1720.1V1694H3195.9V1667.9H3168.9V1694V1694.9V1720.1V1721V1746.1V1747.1V1772.2V1773.1V1799.2H3195V1825.3H3221V1851.4H3248V1825.3V1824.4V1799.2V1798.3V1773.1V1772.2V1747.1V1746.1V1720.1H3222Z" fill="#0000FF"/>
        <path d="M2961.2 2006.9H2934.2V2033.9H2961.2V2006.9Z" fill="white"/>
        <path d="M3117.7 1302.9V1277.8V1276.9V1250.8H3091.6V1224.7H3065.5H3064.6H3039.5V1198.6H3013.4H3012.5H2987.4H2986.5H2960.4V1224.7H2935.3H2934.4H2908.3V1250.8H2883H2882.1H2857H2856.1H2830V1276.9H2804.9H2777.9V1303H2752.8H2751.9H2725.8V1329.1V1330V1355.1V1356V1381.1V1382V1407.1V1408V1433.1V1434V1459.1V1460V1485.1V1486V1511.2V1512.1V1537.2V1538.1V1563.2V1564.1V1589.2V1590.1V1615.3V1616.2V1641.3V1642.2V1667.3V1668.2V1693.3V1694.2V1719.3V1720.2V1745.3V1746.2V1771.4V1772.3V1797.5V1798.4V1823.5V1824.4V1849.5V1850.4V1875.5V1876.4V1901.5V1902.4V1927.5V1928.4V1954.5H2751.9H2752.8H2777.9H2804.9V1928.4H2830H2830.9H2857V1902.3V1901.4V1876.3V1875.4V1850.3V1849.4V1824.3V1823.4V1798.3V1797.4V1772.2V1771.3V1746.1V1745.2V1721V1720.1V1695H2883.1V1668.9H2909.2V1642.8H2934.3H2935.2H2960.3H2961.2H2986.4V1668.9H3012.5V1694V1694.9V1720V1720.9V1746V1746.9V1772.1V1773V1798.2V1799.1V1824.2V1825.1V1851.2H3038.6H3039.5H3065.6V1825.1H3090.7H3091.6H3117.7V1799H3143.8V1772.9V1772V1746.8V1745.9V1721V1720.1V1695V1694.1V1669V1668.1V1643V1642.1V1617V1616.1V1590H3117.7V1563.9H3091.6H3090.7H3065.6V1538.8H3091.7V1512.7H3117.8V1486.6V1485.7V1460.6H3143.9V1434.5V1433.6V1408.5V1407.6V1382.5V1381.6V1356V1355.1V1330V1329.1V1303H3117.7V1302.9ZM2857 1538.5V1537.6V1512.5V1511.6V1486.4V1485.5V1460.4V1459.5V1434.4V1433.5V1408.4V1407.5V1382.4H2883.1V1356H2908.2H2909.1H2935.2V1329.9H2960.3V1356H2986.4V1382.1H3012.5V1407.2V1408.1V1433.2V1434.1V1459.2H2986.4V1485.3V1486.2V1511.4H2960.3V1537.5H2935.2H2934.3H2908.2V1563.6H2883H2882.1H2857V1538.5Z" fill="white"/>
        <path d="M2935.2 1485.4V1459.4H2909.1V1433.3H2882.1V1459.4V1460.3V1485.4V1486.4V1511.5V1512.4V1537.6V1538.5V1564.6H2909.1V1538.5H2934.2H2935.2H2961.2V1512.4V1511.5V1485.4H2935.2Z" fill="#0000FF"/>
        <path d="M2935.2 1798.3V1772.2H2909.1V1746.1H2882.1V1772.2V1773.1V1798.3V1799.2V1824.4V1825.3V1850.4V1851.4V1876.5V1877.4V1902.6V1903.5V1929.6H2908.2V1955.7H2934.2V1981.7H2961.2V1955.7V1954.7V1929.6V1928.7V1903.5V1902.6V1877.4V1876.5V1851.4V1850.4V1825.3V1824.4V1798.3H2935.2Z" fill="#0000FF"/>
        <path d="M2935.2 2032.9V2006.9H2909.1V1980.8H2883V1954.7H2857H2856H2830.9H2830H2803.9V1980.8V1981.7V2007.8H2830V2033.9H2856V2059.9H2882.1V2086H2908.2H2909.1H2935.2V2059.9H2961.2V2032.9H2935.2Z" fill="#000063"/>
        <path d="M2961.2 1485.4V1459.4H2935.2V1433.3H2909.1V1407.2H2883V1381.1H2856V1407.2V1408.1V1433.3V1434.2V1459.4V1460.3V1485.4V1486.4V1511.5V1512.4V1537.6V1538.5V1564.6H2883V1538.5V1537.6V1512.4V1511.5V1486.4V1485.4V1460.3V1459.4V1434.2H2908.2V1460.3H2934.2V1486.4H2960.3V1512.4H2987.3V1485.4H2961.2Z" fill="#F95F76"/>
        <path d="M2909.1 1694V1668.9H2934.2H2935.2H2960.3H2961.2H2987.3V1641.9H2961.2H2960.3H2935.2H2934.2H2908.2V1667.9H2882.1V1694V1694.9V1721H2908.2V1747.1H2934.2V1773.1H2960.3V1799.2H2987.3V1772.2H2961.2V1746.1H2935.2V1720.1H2909.1V1694.9V1694Z" fill="#0000FF"/>
        <path d="M2961.2 1798.3V1772.2H2935.1V1746.1H2909V1720H2883V1694H2856V1720.1V1721V1746.1V1747V1772.2V1773.1V1798.3V1799.2V1824.3V1825.2V1850.3V1851.2V1876.3V1877.2V1902.3V1903.2V1929.3H2882.1V1955.4H2908.2V1981.5H2934.3V2007.6H2960.4V2033.7H2987.4V2007.6V2006.7V1981.6V1980.7V1955.6V1954.7V1929.6V1928.7V1903.6V1902.7V1877.6V1876.7V1851.6V1850.7V1825.6V1824.7V1798.6H2961.2V1798.3ZM2960.3 1825.3V1850.4V1851.3V1876.4V1877.3V1902.4V1903.3V1928.4V1929.3V1954.4V1955.3V1980.4H2935.2V1954.3H2909.1V1928.2H2883V1903.1V1902.2V1877.1V1876.2V1851.1V1850.2V1825.1V1824.2V1799.1V1798.2V1773V1772.1V1746.9H2908.1V1773H2934.2V1799.1H2960.3V1824.2V1825.3V1825.3Z" fill="#F95F76"/>
        <path d="M2987.3 2032.9H2961.2V2006.8H2935.1V1980.7H2909V1954.6H2883V1928.5H2857H2856.1H2831H2830.1H2804V1954.6H2778.9H2778H2751.9V1981.6H2778V2007.7H2804.1V2033.8H2830.2V2059.9H2856.3V2086H2882.4V2112.1H2908.5H2909.4H2935.5V2086H2961.6V2059.9H2987.7V2032.9H2987.3ZM2908.2 2085.1H2883V2059H2857V2032.9H2830.9V2006.8H2804.8V1981.7V1980.8V1955.7H2829.9H2830.8H2855.9H2856.8H2882V1981.8H2908.1V2007.9H2934.2V2034H2960.3V2059.1H2934.2V2085.2H2909.1H2908.2V2085.1Z" fill="#0000FF"/>
        <path d="M2987.3 1407.2V1381.1H2961.2V1355.1H2934.2V1381.1H2908.2V1408.1H2934.2V1434.2H2960.3V1460.3H2987.3V1434.2H3013.4V1407.2H2987.3Z" fill="#000063"/>
        <path d="M3013.4 1408.1V1381.1H2987.3V1355.1H2961.2V1329H2934.2V1355.1H2909.1H2908.2H2882.1V1381.1V1382.1V1408.1H2908.2V1434.2H2934.2V1460.3H2960.3V1486.4H2987.3V1460.3H3013.4V1433.3H2986.4V1459.4H2961.2V1433.3H2935.2V1407.2H2909.1V1382.1H2935.2V1356H2960.3V1382.1H2986.4V1408.1H3013.4Z" fill="#0000FF"/>
        <path d="M2987.3 1667.9H2986.4H2961.2H2960.3H2935.2H2934.2H2908.2V1694V1694.9V1721H2934.2V1747.1H2960.3V1773.1H2986.4V1799.2H3013.4V1773.1V1772.2V1747.1V1746.1V1721V1720.1V1694.9V1694V1667.9H2987.3Z" fill="#000063"/>
        <path d="M3195.9 1563.6V1537.6H3169.8V1511.5H3143.8H3142.8H3116.8V1537.6V1538.5V1564.6H3142.8V1590.6H3168.9V1616.7H3195V1642.8H3222V1616.7V1615.8V1590.6V1589.7V1563.6H3195.9Z" fill="#000063"/>
        <path d="M3222 1667.9V1641.9H3195.9V1615.8H3169.8V1589.7H3143.8V1563.6H3117.7V1538.5V1537.6V1512.4H3142.8H3143.8H3168.9V1538.5H3195V1564.6H3222V1537.6H3195.9V1511.5H3169.8V1485.4H3143.8V1459.4H3116.8V1485.4V1486.4V1511.5H3090.7V1537.6H3064.6V1564.6H3090.7H3091.6H3116.8V1590.6H3142.8V1616.7H3168.9V1642.8H3195V1668.9H3221V1694.9H3248V1667.9H3222Z" fill="#0000FF"/>
        <path d="M3195.9 1876.5V1850.4H3169.8V1824.4H3143.8H3142.8H3116.8V1850.4H3091.6H3090.7H3064.6V1877.4H3090.7V1903.5H3116.8V1929.6H3142.8V1955.7H3169.8V1929.6H3195H3195.9H3222V1903.5V1902.6V1876.5H3195.9Z" fill="#000063"/>
        <path d="M3248 1721V1694H3222V1667.9H3195.9V1641.9H3169.8V1615.8H3142.8V1641.9V1642.8V1667.9V1668.9V1694V1694.9V1720.1V1721V1746.1V1747.1V1772.2V1773.1V1799.2H3168.9V1825.3H3195V1851.4H3221V1877.4H3248V1850.4H3222V1824.4H3195.9V1798.3H3169.8V1773.1V1772.2V1747.1V1746.1V1721V1720.1V1694.9V1694V1668.9H3195V1694.9H3221V1721H3248Z" fill="#F95F76"/>
        <path d="M3222 1876.5V1850.4H3195.9V1824.4H3169.8V1798.3H3143.8H3142.8H3116.8V1824.4H3091.6H3090.7H3064.6V1850.4H3038.5V1877.4H3064.6V1903.5H3090.7V1929.6H3116.8V1955.7H3142.8V1981.7H3169.8V1954.7H3143.8V1928.7H3117.7V1902.6H3091.6V1876.5H3065.5V1851.4H3090.7H3091.6H3117.7V1825.3H3142.8H3143.8H3168.9V1851.4H3195V1877.4H3221V1903.5H3248V1876.5H3222Z" fill="#0000FF"/>
        <path d="M3248 1408.1V1381.1H3222V1355.1H3195.9V1329H3169.8V1302.9H3143.8V1276.9H3116.8V1303.9H3142.8V1329V1329.9V1355.1V1356V1381.1V1382.1V1407.2V1408.1V1433.3V1434.2V1459.4V1460.3V1486.4H3168.9V1512.4H3195V1538.5H3222V1511.5H3195.9V1485.4H3169.8V1460.3V1459.4V1434.2V1433.3V1408.1V1407.2V1382.1V1381.1V1356H3195V1382.1H3221V1408.1H3248Z" fill="#F95F76"/>
        <path d="M3612.8 1217.4H3611.9H3586.7H3585.8H3559.7V1243.5H3534.6H3533.7H3507.6V1269.6H3482.5H3481.6H3456.5H3455.6H3429.5V1295.7H3404.4H3403.5H3377.4V1321.8H3352.3H3351.4H3325.3V1347.9H3300H3299.1H3273V1374V1374.9V1400H3246.9V1426.1V1427V1452.1H3220.8V1478.2V1479.1V1504.2V1505.1V1530.2V1531.1V1556.2V1557.1V1583.2H3246.9V1608.3V1609.2V1635.3H3273V1661.4H3299.1H3300H3325.2V1687.5H3351.3H3352.2H3377.3V1713.6H3403.4V1739.7H3429.5V1764.8H3403.4V1790.9H3378.3H3377.4H3351.3V1817H3326H3325.1H3299V1843.1H3273.9H3273H3247.9H3247H3220.9V1869.2H3195.8H3194.9H3168.8V1895.3V1896.2V1921.3V1922.2V1947.4V1948.3V1973.4V1974.3V2000.4H3194.9H3195.8H3221.9V1974.3H3247H3247.9H3273H3273.9H3300V1948.2H3325.2H3326.1H3351.3H3352.2H3378.3V1922.2H3404.8H3430.4V1896.1H3455.5H3456.4H3482.5V1870H3507.6H3508.5H3534.6V1844H3560.7V1818V1817.1V1792H3586.8V1765.9V1765V1739.9V1739V1713.9V1713V1686.9H3560.7V1661.8V1660.9V1634.8H3534.6V1608.7H3508.5V1582.6H3482.4H3481.5H3456.4V1556.5H3430.3H3429.4H3404.3V1530.4H3378.2V1505.3V1504.4V1479H3404.3V1453V1452.1V1427H3430.4V1400.9H3455.5V1426V1426.9V1453H3481.6V1479.1H3507.7V1505.2H3533.8H3534.7H3560.8V1479V1478.1V1453V1452.1V1427V1426.1V1401V1400.1V1374H3534.7H3533.8H3508.7V1348.9H3533.8H3534.7H3560.8V1322.8H3585.9H3586.8H3612H3612.9H3639V1296.7V1295.8V1270.6V1269.7V1244.6V1243.7V1217.6H3612.8V1217.4ZM3507.6 1399.9H3482.5H3481.6H3456.5V1374.8H3481.6H3482.5H3507.6V1399.9Z" fill="white"/>
        <path d="M3585.8 1373.8V1374.7V1399.9V1400.8V1426V1426.9V1452V1453V1478.1V1479V1505.1H3612.8V1479V1478.1V1453V1452V1426.9V1426V1400.8V1399.9V1374.7V1373.8V1347.7H3585.8V1373.8Z" fill="white"/>
        <path d="M3665 1817V1791.9V1791V1764.9H3638.9V1739.7V1738.8V1712.7H3611.9V1738.8V1739.7V1764.9V1765.8V1791H3585.8V1817V1818V1844H3611.9V1870.1H3638V1896.2H3664V1922.2H3691V1896.2V1895.2V1870.1V1869.2V1844V1843.1V1817H3665Z" fill="#0000FF"/>
        <path d="M3691 1947.4H3665V1921.3H3638.9V1895.2H3612.8V1869.1H3586.7V1843H3560.6H3559.7H3533.6V1869.1H3508.5H3507.6H3481.5V1895.2H3456.4H3455.5H3429.4V1921.3H3404.3H3403.4H3377.3V1947.4H3352.2H3351.3H3326H3325.1H3299V1973.5H3273.9H3273H3247.9H3247H3220.9V1999.6H3195.8H3194.9H3168.8V2026.6H3194.9H3195.8H3220.9V2052.7H3247V2078.8H3273.1V2104.9H3299.2V2131H3325.3V2157.1H3351.4H3352.3H3378.4V2131H3403.5H3404.4H3430.5V2104.9H3455.6H3456.5H3482.6V2078.8H3507.7H3508.6H3533.7H3534.6H3560.7V2052.7H3585.8H3586.7H3612.8V2026.6H3638.9V2000.5H3665V1974.4H3691.1V1947.4H3691ZM3585.8 2025.6H3559.7V2051.7H3534.6H3533.7H3508.6H3507.7H3481.6V2077.8H3456.5H3455.6H3429.5V2103.9H3404.4H3403.5H3377.4V2130H3352.3H3351.4H3326V2103.9H3300V2077.8H3273.9V2051.7H3247.8V2025.6H3221.7V2000.5H3246.8H3247.7H3272.8H3273.7H3299.8V1974.4H3325H3325.9H3351.1H3352H3378.1V1948.3H3403.2H3404.1H3430.2V1922.2H3455.3H3456.2H3482.3V1896.1H3507.4H3508.3H3534.4V1870H3559.5H3560.4H3585.5V1896.1H3611.6V1922.2H3637.7V1948.3H3663.8V1973.4H3638V1999.5H3611.9V2025.6H3586.7H3585.8Z" fill="#0000FF"/>
        <path d="M3482.5 1530.2V1504.2H3456.4V1478.1H3430.3H3429.4H3403.3V1504.2V1505.1V1530.2V1531.2V1557.2H3429.4H3430.3H3455.5V1583.3H3482.5V1557.2H3508.5V1530.2H3482.5Z" fill="#0000FF"/>
        <path d="M3638.9 1947.4V1921.3H3612.8V1895.2H3586.7V1869.2H3560.7H3559.7H3533.7V1895.2H3508.5H3507.6H3481.5V1921.3H3456.4H3455.5H3429.4V1947.4H3404.2H3403.3H3377.2V1973.5H3352.1H3351.2H3326H3325.1H3299V1999.5H3273.9H3273H3247.8H3246.9H3220.8V2026.5H3246.9V2052.6H3273V2078.7H3299V2104.8H3325.1V2130.8H3351.2H3352.1H3378.2V2104.8H3403.3H3404.2H3430.3V2078.7H3455.5H3456.4H3482.5V2052.6H3507.6H3508.5H3533.7H3534.6H3560.7V2026.5H3585.8H3586.7H3612.8V2000.5H3638.9V1974.4H3665V1947.4H3638.9Z" fill="#000063"/>
        <path d="M3691 1426V1399.9H3665V1373.8H3638.9V1347.7H3612.8H3611.9H3586.7H3585.8H3559.7V1373.8H3534.6H3533.7H3507.6V1399.9H3482.5H3481.5H3455.5V1426V1426.9V1453H3481.5V1479H3507.6V1505.1H3533.7V1531.2H3560.7V1505.1H3585.8H3586.7H3612.8V1479H3638H3638.9H3665V1453H3690.1H3691H3717.1V1426H3691Z" fill="#000063"/>
        <path d="M3743.2 1426H3717.1V1399.9H3691V1373.8H3665V1347.7H3638.9V1321.6H3612.8H3611.9H3586.7H3585.8H3559.7V1347.7H3534.6H3533.7H3507.6V1373.8H3482.5H3481.6H3455.5V1399.9H3429.4V1426V1426.9V1453H3455.5V1479.1H3481.6V1505.2H3507.7V1531.3H3533.8V1557.4H3560.8V1531.3H3585.9H3586.8H3612.9V1505.2H3638H3638.9H3665V1479H3690.1H3691H3717.1V1453H3743.2V1426ZM3690.1 1452H3664V1478.1H3638.9H3638H3611.9V1504.2H3586.7H3585.8H3559.7V1530.3H3534.6V1504.2H3508.5V1478.1H3482.4V1452H3456.3V1426.9V1426V1400.9H3481.4H3482.3H3508.4V1374.8H3533.5H3534.4H3560.5V1348.7H3585.6H3586.5H3611.7H3612.6H3637.7V1374.8H3663.8V1400.9H3689.9V1427H3716V1452.1H3691H3690.1V1452Z" fill="#0000FF"/>
        <path d="M3534.6 1530.2H3508.5V1504.2H3482.5V1478.1H3456.4V1452H3430.3V1426H3403.3V1452V1453V1478.1H3377.2V1504.2V1505.1V1531.2H3404.2V1505.1V1504.2V1479H3429.4H3430.3H3455.5V1505.1H3481.5V1531.2H3507.6V1556.3H3481.5V1583.3H3508.5V1557.2H3534.6V1530.2Z" fill="#F95F76"/>
        <path d="M3691 1817V1791.9V1791V1764.9H3665V1739.8V1738.9V1712.8H3638.9V1686.7H3612.8V1660.6H3586.7V1634.5H3559.7V1660.6V1661.5V1687.6H3585.8V1712.7V1713.6V1738.7V1739.6V1764.7V1765.6V1790.7H3559.7V1816.8V1817.7V1843.8H3585.8V1869.9H3611.9V1896H3638V1922.1H3664.1V1948.2H3690.2H3691.1H3717.2V1922.1V1921.2V1896.1V1895.2V1870.1V1869.2V1844V1843.1V1817H3691ZM3690.1 1844V1869.1V1870V1895.1V1896V1921.1H3665V1895H3638.9V1868.9H3612.8V1842.8H3586.7V1818V1817.1V1792H3612.8V1765.9V1765V1739.9V1739V1713.9H3637.9V1739V1739.9V1766H3664V1791.1V1792V1818.1H3690.1V1843.3V1844Z" fill="#F95F76"/>
        <path d="M3743.2 1347.7V1321.6H3717.1V1295.5H3691V1269.4H3665V1243.3H3638V1269.4V1270.3V1295.5V1296.4V1321.6V1322.5V1348.6H3664.1V1374.7H3690.2V1400.8H3716.3V1426.9H3742.4V1453H3769.4V1426.9V1426V1400.9V1400V1374.9V1374V1347.9H3743.2V1347.7ZM3742.3 1374.7V1399.8H3717.2V1373.7H3691V1347.6H3665V1322.5V1321.6V1296.4H3690.1V1322.5H3716.2V1348.6H3742.3V1373.7V1374.7V1374.7Z" fill="#F95F76"/>
        <path d="M3717.1 1347.7V1321.7H3691V1295.6H3664V1321.7V1322.6V1348.7H3690.1V1374.7H3716.2V1400.8H3743.2V1374.7V1373.8V1347.7H3717.1Z" fill="#0000FF"/>
    </g>
    <defs>
        <clipPath id="clip0">
            <rect width="3769.3" height="2156.9" fill="white"/>
        </clipPath>
    </defs>
</svg>
