{
    "asset" : {
        "generator" : "Khronos glTF Blender I/O v1.0.5",
        "version" : "2.0"
    },
    "scene" : 0,
    "scenes" : [
        {
            "name" : "Scene",
            "nodes" : [
                0,
                1,
                2
            ]
        }
    ],
    "nodes" : [
        {
            "mesh" : 0,
            "name" : "river",
            "scale" : [
                -56.625762939453125,
                -56.625762939453125,
                -56.625762939453125
            ]
        },
        {
            "name" : "Camera",
            "rotation" : [
                -0.35203075408935547,
                -0.6089107990264893,
                0.34471702575683594,
                -0.6216688752174377
            ],
            "translation" : [
                66.9828109741211,
                45.702613830566406,
                -2.359658718109131
            ]
        },
        {
            "mesh" : 1,
            "name" : "terrain",
            "scale" : [
                -56.625762939453125,
                -56.625762939453125,
                -56.625762939453125
            ]
        }
    ],
    "meshes" : [
        {
            "name" : "Plane.009",
            "primitives" : [
                {
                    "attributes" : {
                        "POSITION" : 0,
                        "NORMAL" : 1,
                        "JOINTS_0" : 2,
                        "WEIGHTS_0" : 3
                    },
                    "indices" : 4
                }
            ]
        },
        {
            "name" : "Plane.020",
            "primitives" : [
                {
                    "attributes" : {
                        "POSITION" : 5,
                        "NORMAL" : 6,
                        "JOINTS_0" : 7,
                        "WEIGHTS_0" : 8
                    },
                    "indices" : 9
                }
            ]
        }
    ],
    "accessors" : [
        {
            "bufferView" : 0,
            "componentType" : 5126,
            "count" : 92,
            "max" : [
                0.3497476577758789,
                -0.003787508700042963,
                -0.07333768159151077
            ],
            "min" : [
                -0.1266908049583435,
                -0.040078457444906235,
                -0.22893774509429932
            ],
            "type" : "VEC3"
        },
        {
            "bufferView" : 1,
            "componentType" : 5126,
            "count" : 92,
            "type" : "VEC3"
        },
        {
            "bufferView" : 2,
            "componentType" : 5123,
            "count" : 92,
            "type" : "VEC4"
        },
        {
            "bufferView" : 3,
            "componentType" : 5126,
            "count" : 92,
            "type" : "VEC4"
        },
        {
            "bufferView" : 4,
            "componentType" : 5123,
            "count" : 138,
            "type" : "SCALAR"
        },
        {
            "bufferView" : 5,
            "componentType" : 5126,
            "count" : 9913,
            "max" : [
                0.4158976078033447,
                0.05650036036968231,
                1.150880217552185
            ],
            "min" : [
                -1.2937936782836914,
                -0.21068401634693146,
                -1.1653995513916016
            ],
            "type" : "VEC3"
        },
        {
            "bufferView" : 6,
            "componentType" : 5126,
            "count" : 9913,
            "type" : "VEC3"
        },
        {
            "bufferView" : 7,
            "componentType" : 5123,
            "count" : 9913,
            "type" : "VEC4"
        },
        {
            "bufferView" : 8,
            "componentType" : 5126,
            "count" : 9913,
            "type" : "VEC4"
        },
        {
            "bufferView" : 9,
            "componentType" : 5123,
            "count" : 9933,
            "type" : "SCALAR"
        }
    ],
    "bufferViews" : [
        {
            "buffer" : 0,
            "byteLength" : 1104,
            "byteOffset" : 0
        },
        {
            "buffer" : 0,
            "byteLength" : 1104,
            "byteOffset" : 1104
        },
        {
            "buffer" : 0,
            "byteLength" : 736,
            "byteOffset" : 2208
        },
        {
            "buffer" : 0,
            "byteLength" : 1472,
            "byteOffset" : 2944
        },
        {
            "buffer" : 0,
            "byteLength" : 276,
            "byteOffset" : 4416
        },
        {
            "buffer" : 0,
            "byteLength" : 118956,
            "byteOffset" : 4692
        },
        {
            "buffer" : 0,
            "byteLength" : 118956,
            "byteOffset" : 123648
        },
        {
            "buffer" : 0,
            "byteLength" : 79304,
            "byteOffset" : 242604
        },
        {
            "buffer" : 0,
            "byteLength" : 158608,
            "byteOffset" : 321908
        },
        {
            "buffer" : 0,
            "byteLength" : 19866,
            "byteOffset" : 480516
        }
    ],
    "buffers" : [
        {
            "byteLength" : 500384,
            "uri" : "data:application/octet-stream;base64,"
        }
    ]
}
